<?xml version="1.0" encoding="UTF-8" standalone="no"?>
<svg
   xmlns:dc="http://purl.org/dc/elements/1.1/"
   xmlns:cc="http://creativecommons.org/ns#"
   xmlns:rdf="http://www.w3.org/1999/02/22-rdf-syntax-ns#"
   xmlns:svg="http://www.w3.org/2000/svg"
   xmlns="http://www.w3.org/2000/svg"
   xmlns:sodipodi="http://sodipodi.sourceforge.net/DTD/sodipodi-0.dtd"
   xmlns:inkscape="http://www.inkscape.org/namespaces/inkscape"
   width="180mm"
   height="100mm"
   viewBox="0 0 18000 10000"
   version="1.1"
   stroke-width="28.222"
   stroke-linejoin="round"
   xml:space="preserve"
   id="svg531"
   sodipodi:docname="Flughöhen-Vergleich.svg"
   inkscape:export-filename="/home/jeremias/Schule/sf452/GitHub/trunk/Schriftliche Arbeit/Bilder/Flughöhen-Vergleich.png"
   inkscape:export-xdpi="300"
   inkscape:export-ydpi="300"
   inkscape:version="0.92.3 (2405546, 2018-03-11)"><metadata
   id="metadata537"><rdf:RDF><cc:Work
       rdf:about=""><dc:format>image/svg+xml</dc:format><dc:type
         rdf:resource="http://purl.org/dc/dcmitype/StillImage" /></cc:Work></rdf:RDF></metadata><defs
   id="defs535" /><sodipodi:namedview
   pagecolor="#ffffff"
   bordercolor="#666666"
   borderopacity="1"
   objecttolerance="10"
   gridtolerance="10"
   guidetolerance="10"
   inkscape:pageopacity="0"
   inkscape:pageshadow="2"
   inkscape:window-width="1920"
   inkscape:window-height="1049"
   id="namedview533"
   showgrid="false"
   inkscape:zoom="0.59090278"
   inkscape:cx="-93.92408"
   inkscape:cy="188.97638"
   inkscape:window-x="0"
   inkscape:window-y="0"
   inkscape:window-maximized="1"
   inkscape:current-layer="svg531" />
 <path
   fill="rgb(255,255,255)"
   stroke="none"
   d="M 8992,10003 L -8,10003 -8,3 17992,3 17992,10003 8992,10003 Z"
   id="path2" />
 <path
   fill="none"
   stroke="rgb(179,179,179)"
   stroke-linejoin="round"
   d="M 9796,9018 L 1970,9018 1970,2045 17623,2045 17623,9018 9796,9018 Z"
   id="path4" />
 <path
   fill="none"
   stroke="rgb(179,179,179)"
   stroke-linejoin="round"
   d="M 17623,9017 L 1970,9017"
   id="path6" />
 <path
   fill="none"
   stroke="rgb(179,179,179)"
   stroke-linejoin="round"
   d="M 17623,7500 L 1970,7500"
   id="path8" />
 <path
   fill="none"
   stroke="rgb(179,179,179)"
   stroke-linejoin="round"
   d="M 17623,5984 L 1970,5984"
   id="path10" />
 <path
   fill="none"
   stroke="rgb(179,179,179)"
   stroke-linejoin="round"
   d="M 17623,4469 L 1970,4469"
   id="path12" />
 <path
   fill="none"
   stroke="rgb(179,179,179)"
   stroke-linejoin="round"
   d="M 17623,2953 L 1970,2953"
   id="path14" />
 <path
   fill="none"
   stroke="rgb(179,179,179)"
   stroke-linejoin="round"
   d="M 1970,9167 L 1970,9017"
   id="path16" />
 <path
   fill="none"
   stroke="rgb(179,179,179)"
   stroke-linejoin="round"
   d="M 1970,9167 L 1970,9017"
   id="path18" />
 <path
   fill="none"
   stroke="rgb(179,179,179)"
   stroke-linejoin="round"
   d="M 5100,9167 L 5100,9017"
   id="path20" />
 <path
   fill="none"
   stroke="rgb(179,179,179)"
   stroke-linejoin="round"
   d="M 5100,9167 L 5100,9017"
   id="path22" />
 <path
   fill="none"
   stroke="rgb(179,179,179)"
   stroke-linejoin="round"
   d="M 8231,9167 L 8231,9017"
   id="path24" />
 <path
   fill="none"
   stroke="rgb(179,179,179)"
   stroke-linejoin="round"
   d="M 8231,9167 L 8231,9017"
   id="path26" />
 <path
   fill="none"
   stroke="rgb(179,179,179)"
   stroke-linejoin="round"
   d="M 11361,9167 L 11361,9017"
   id="path28" />
 <path
   fill="none"
   stroke="rgb(179,179,179)"
   stroke-linejoin="round"
   d="M 11361,9167 L 11361,9017"
   id="path30" />
 <path
   fill="none"
   stroke="rgb(179,179,179)"
   stroke-linejoin="round"
   d="M 14492,9167 L 14492,9017"
   id="path32" />
 <path
   fill="none"
   stroke="rgb(179,179,179)"
   stroke-linejoin="round"
   d="M 14492,9167 L 14492,9017"
   id="path34" />
 <path
   fill="none"
   stroke="rgb(179,179,179)"
   stroke-linejoin="round"
   d="M 17623,9167 L 17623,9017"
   id="path36" />
 <path
   fill="none"
   stroke="rgb(179,179,179)"
   stroke-linejoin="round"
   d="M 17623,9167 L 17623,9017"
   id="path38" />
 <path
   fill="none"
   stroke="rgb(179,179,179)"
   stroke-linejoin="round"
   d="M 1970,9017 L 17623,9017"
   id="path40" />
 <path
   fill="none"
   stroke="rgb(179,179,179)"
   stroke-linejoin="round"
   d="M 1820,9017 L 1970,9017"
   id="path42" />
 <path
   fill="none"
   stroke="rgb(179,179,179)"
   stroke-linejoin="round"
   d="M 1820,9017 L 1970,9017"
   id="path44" />
 <path
   fill="none"
   stroke="rgb(179,179,179)"
   stroke-linejoin="round"
   d="M 1820,7500 L 1970,7500"
   id="path46" />
 <path
   fill="none"
   stroke="rgb(179,179,179)"
   stroke-linejoin="round"
   d="M 1820,7500 L 1970,7500"
   id="path48" />
 <path
   fill="none"
   stroke="rgb(179,179,179)"
   stroke-linejoin="round"
   d="M 1820,5984 L 1970,5984"
   id="path50" />
 <path
   fill="none"
   stroke="rgb(179,179,179)"
   stroke-linejoin="round"
   d="M 1820,5984 L 1970,5984"
   id="path52" />
 <path
   fill="none"
   stroke="rgb(179,179,179)"
   stroke-linejoin="round"
   d="M 1820,4469 L 1970,4469"
   id="path54" />
 <path
   fill="none"
   stroke="rgb(179,179,179)"
   stroke-linejoin="round"
   d="M 1820,4469 L 1970,4469"
   id="path56" />
 <path
   fill="none"
   stroke="rgb(179,179,179)"
   stroke-linejoin="round"
   d="M 1820,2953 L 1970,2953"
   id="path58" />
 <path
   fill="none"
   stroke="rgb(179,179,179)"
   stroke-linejoin="round"
   d="M 1820,2953 L 1970,2953"
   id="path60" />
 <path
   fill="none"
   stroke="rgb(179,179,179)"
   stroke-linejoin="round"
   d="M 1970,9017 L 1970,2043"
   id="path62" />
 <path
   fill="rgb(0,69,134)"
   stroke="none"
   d="M 14883,9017 L 15666,9017 15666,3472 14883,3472 14883,9017 Z"
   id="path64" />
 <path
   fill="rgb(0,69,134)"
   stroke="none"
   d="M 11752,9017 L 12535,9017 12535,2402 11752,2402 11752,9017 Z"
   id="path66" />
 <path
   fill="rgb(0,69,134)"
   stroke="none"
   d="M 8622,9017 L 9404,9017 9404,2806 8622,2806 8622,9017 Z"
   id="path68" />
 <path
   fill="rgb(0,69,134)"
   stroke="none"
   d="M 5492,9017 L 6274,9017 6274,3107 5492,3107 5492,9017 Z"
   id="path70" />
 <path
   fill="rgb(0,69,134)"
   stroke="none"
   d="M 2361,9017 L 3144,9017 3144,2513 2361,2513 2361,9017 Z"
   id="path72" />
 <path
   fill="rgb(255,66,14)"
   stroke="none"
   d="M 12535,9017 L 13318,9017 13318,3529 12535,3529 12535,9017 Z"
   id="path74" />
 <path
   fill="rgb(255,66,14)"
   stroke="none"
   d="M 9404,9017 L 10187,9017 10187,3772 9404,3772 9404,9017 Z"
   id="path76" />
 <path
   fill="rgb(255,66,14)"
   stroke="none"
   d="M 6274,9017 L 7057,9017 7057,3954 6274,3954 6274,9017 Z"
   id="path78" />
 <path
   fill="rgb(255,66,14)"
   stroke="none"
   d="M 3144,9017 L 3926,9017 3926,3681 3144,3681 3144,9017 Z"
   id="path80" />
 <path
   fill="rgb(255,211,32)"
   stroke="none"
   d="M 16448,9017 L 17231,9017 17231,4316 16448,4316 16448,9017 Z"
   id="path82" />
 <path
   fill="rgb(255,211,32)"
   stroke="none"
   d="M 7057,9017 L 7840,9017 7840,4023 7057,4023 7057,9017 Z"
   id="path84" />
 <path
   fill="rgb(255,211,32)"
   stroke="none"
   d="M 3926,9017 L 4709,9017 4709,3919 3926,3919 3926,9017 Z"
   id="path86" />
 <text
   class="TextShape"
   id="text94"><tspan
     class="TextParagraph"
     font-family="Liberation Sans, sans-serif"
     font-size="423px"
     font-weight="700"
     id="tspan92"><tspan
       class="TextPosition"
       x="2953"
       y="9637"
       id="tspan90"><tspan
         fill="rgb(0,0,0)"
         stroke="none"
         id="tspan88">Ogive</tspan></tspan></tspan></text>

 <text
   class="TextShape"
   id="text102"><tspan
     class="TextParagraph"
     font-family="Liberation Sans, sans-serif"
     font-size="423px"
     font-weight="700"
     id="tspan100"><tspan
       class="TextPosition"
       x="5991"
       y="9637"
       id="tspan98"><tspan
         fill="rgb(0,0,0)"
         stroke="none"
         id="tspan96">Ellipse</tspan></tspan></tspan></text>

 <text
   class="TextShape"
   id="text110"><tspan
     class="TextParagraph"
     font-family="Liberation Sans, sans-serif"
     font-size="423px"
     font-weight="700"
     id="tspan108"><tspan
       class="TextPosition"
       x="9162"
       y="9637"
       id="tspan106"><tspan
         fill="rgb(0,0,0)"
         stroke="none"
         id="tspan104">Haack</tspan></tspan></tspan></text>

 <text
   class="TextShape"
   id="text118"><tspan
     class="TextParagraph"
     font-family="Liberation Sans, sans-serif"
     font-size="423px"
     font-weight="700"
     id="tspan116"><tspan
       class="TextPosition"
       x="12080"
       y="9637"
       id="tspan114"><tspan
         fill="rgb(0,0,0)"
         stroke="none"
         id="tspan112">Konisch</tspan></tspan></tspan></text>

 <text
   class="TextShape"
   id="text126"><tspan
     class="TextParagraph"
     font-family="Liberation Sans, sans-serif"
     font-size="423px"
     font-weight="700"
     id="tspan124"><tspan
       class="TextPosition"
       x="14682"
       y="9637"
       id="tspan122"><tspan
         fill="rgb(0,0,0)"
         stroke="none"
         id="tspan120">Experimentell</tspan></tspan></tspan></text>

 <text
   class="TextShape"
   id="text134"><tspan
     class="TextParagraph"
     font-family="Liberation Sans, sans-serif"
     font-size="423px"
     font-weight="400"
     id="tspan132"><tspan
       class="TextPosition"
       x="1482"
       y="9163"
       id="tspan130"><tspan
         fill="rgb(0,0,0)"
         stroke="none"
         id="tspan128">0</tspan></tspan></tspan></text>

 <text
   class="TextShape"
   id="text142"><tspan
     class="TextParagraph"
     font-family="Liberation Sans, sans-serif"
     font-size="423px"
     font-weight="400"
     id="tspan140"><tspan
       class="TextPosition"
       x="1244"
       y="7646"
       id="tspan138"><tspan
         fill="rgb(0,0,0)"
         stroke="none"
         id="tspan136">50</tspan></tspan></tspan></text>

 <text
   class="TextShape"
   id="text150"><tspan
     class="TextParagraph"
     font-family="Liberation Sans, sans-serif"
     font-size="423px"
     font-weight="400"
     id="tspan148"><tspan
       class="TextPosition"
       x="1006"
       y="6130"
       id="tspan146"><tspan
         fill="rgb(0,0,0)"
         stroke="none"
         id="tspan144">100</tspan></tspan></tspan></text>

 <text
   class="TextShape"
   id="text158"><tspan
     class="TextParagraph"
     font-family="Liberation Sans, sans-serif"
     font-size="423px"
     font-weight="400"
     id="tspan156"><tspan
       class="TextPosition"
       x="1006"
       y="4614"
       id="tspan154"><tspan
         fill="rgb(0,0,0)"
         stroke="none"
         id="tspan152">150</tspan></tspan></tspan></text>

 <text
   class="TextShape"
   id="text166"><tspan
     class="TextParagraph"
     font-family="Liberation Sans, sans-serif"
     font-size="423px"
     font-weight="400"
     id="tspan164"><tspan
       class="TextPosition"
       x="1006"
       y="3098"
       id="tspan162"><tspan
         fill="rgb(0,0,0)"
         stroke="none"
         id="tspan160">200</tspan></tspan></tspan></text>

 <text
   class="TextShape"
   transform="translate(2896,3777) rotate(-90) translate(-2896,-3777)"
   id="text174"><tspan
     class="TextParagraph"
     font-family="Liberation Sans, sans-serif"
     font-size="388px"
     font-weight="400"
     id="tspan172"><tspan
       class="TextPosition"
       x="2896"
       y="3777"
       id="tspan170"><tspan
         fill="rgb(0,0,0)"
         stroke="none"
         id="tspan168">214,52</tspan></tspan></tspan></text>

 <text
   class="TextShape"
   transform="translate(6027,4371) rotate(-90) translate(-6027,-4371)"
   id="text182"><tspan
     class="TextParagraph"
     font-family="Liberation Sans, sans-serif"
     font-size="388px"
     font-weight="400"
     id="tspan180"><tspan
       class="TextPosition"
       x="6027"
       y="4371"
       id="tspan178"><tspan
         fill="rgb(0,0,0)"
         stroke="none"
         id="tspan176">194,92</tspan></tspan></tspan></text>

 <text
   class="TextShape"
   transform="translate(9157,4070) rotate(-90) translate(-9157,-4070)"
   id="text190"><tspan
     class="TextParagraph"
     font-family="Liberation Sans, sans-serif"
     font-size="388px"
     font-weight="400"
     id="tspan188"><tspan
       class="TextPosition"
       x="9157"
       y="4070"
       id="tspan186"><tspan
         fill="rgb(0,0,0)"
         stroke="none"
         id="tspan184">204,84</tspan></tspan></tspan></text>

 <text
   class="TextShape"
   transform="translate(12288,3666) rotate(-90) translate(-12288,-3666)"
   id="text198"><tspan
     class="TextParagraph"
     font-family="Liberation Sans, sans-serif"
     font-size="388px"
     font-weight="400"
     id="tspan196"><tspan
       class="TextPosition"
       x="12288"
       y="3666"
       id="tspan194"><tspan
         fill="rgb(0,0,0)"
         stroke="none"
         id="tspan192">218,18</tspan></tspan></tspan></text>

 <text
   class="TextShape"
   transform="translate(15418,4736) rotate(-90) translate(-15418,-4736)"
   id="text206"><tspan
     class="TextParagraph"
     font-family="Liberation Sans, sans-serif"
     font-size="388px"
     font-weight="400"
     id="tspan204"><tspan
       class="TextPosition"
       x="15418"
       y="4736"
       id="tspan202"><tspan
         fill="rgb(0,0,0)"
         stroke="none"
         id="tspan200">182,88</tspan></tspan></tspan></text>

 <text
   class="TextShape"
   transform="translate(3679,4416) rotate(-90) translate(-3679,-4416)"
   id="text214"><tspan
     class="TextParagraph"
     font-family="Liberation Sans, sans-serif"
     font-size="388px"
     font-weight="400"
     id="tspan212"><tspan
       class="TextPosition"
       x="3679"
       y="4416"
       id="tspan210"><tspan
         fill="rgb(0,0,0)"
         stroke="none"
         id="tspan208">176</tspan></tspan></tspan></text>

 <text
   class="TextShape"
   transform="translate(6810,4689) rotate(-90) translate(-6810,-4689)"
   id="text222"><tspan
     class="TextParagraph"
     font-family="Liberation Sans, sans-serif"
     font-size="388px"
     font-weight="400"
     id="tspan220"><tspan
       class="TextPosition"
       x="6810"
       y="4689"
       id="tspan218"><tspan
         fill="rgb(0,0,0)"
         stroke="none"
         id="tspan216">167</tspan></tspan></tspan></text>

 <text
   class="TextShape"
   transform="translate(9940,4507) rotate(-90) translate(-9940,-4507)"
   id="text230"><tspan
     class="TextParagraph"
     font-family="Liberation Sans, sans-serif"
     font-size="388px"
     font-weight="400"
     id="tspan228"><tspan
       class="TextPosition"
       x="9940"
       y="4507"
       id="tspan226"><tspan
         fill="rgb(0,0,0)"
         stroke="none"
         id="tspan224">173</tspan></tspan></tspan></text>

 <text
   class="TextShape"
   transform="translate(13070,4264) rotate(-90) translate(-13070,-4264)"
   id="text238"><tspan
     class="TextParagraph"
     font-family="Liberation Sans, sans-serif"
     font-size="388px"
     font-weight="400"
     id="tspan236"><tspan
       class="TextPosition"
       x="13070"
       y="4264"
       id="tspan234"><tspan
         fill="rgb(0,0,0)"
         stroke="none"
         id="tspan232">181</tspan></tspan></tspan></text>

 <text
   class="TextShape"
   transform="translate(4462,5183) rotate(-90) translate(-4462,-5183)"
   id="text246"><tspan
     class="TextParagraph"
     font-family="Liberation Sans, sans-serif"
     font-size="388px"
     font-weight="400"
     id="tspan244"><tspan
       class="TextPosition"
       x="4462"
       y="5183"
       id="tspan242"><tspan
         fill="rgb(0,0,0)"
         stroke="none"
         id="tspan240">168,14</tspan></tspan></tspan></text>

 <text
   class="TextShape"
   transform="translate(7592,5287) rotate(-90) translate(-7592,-5287)"
   id="text254"><tspan
     class="TextParagraph"
     font-family="Liberation Sans, sans-serif"
     font-size="388px"
     font-weight="400"
     id="tspan252"><tspan
       class="TextPosition"
       x="7592"
       y="5287"
       id="tspan250"><tspan
         fill="rgb(0,0,0)"
         stroke="none"
         id="tspan248">164,71</tspan></tspan></tspan></text>

 <text
   class="TextShape"
   transform="translate(16984,5580) rotate(-90) translate(-16984,-5580)"
   id="text262"><tspan
     class="TextParagraph"
     font-family="Liberation Sans, sans-serif"
     font-size="388px"
     font-weight="400"
     id="tspan260"><tspan
       class="TextPosition"
       x="16984"
       y="5580"
       id="tspan258"><tspan
         fill="rgb(0,0,0)"
         stroke="none"
         id="tspan256">155,05</tspan></tspan></tspan></text>

 <text
   class="TextShape"
   id="text270"><tspan
     class="TextParagraph"
     font-family="Liberation Sans, sans-serif"
     font-size="529px"
     font-weight="700"
     id="tspan268"><tspan
       class="TextPosition"
       x="4851"
       y="973"
       id="tspan266"><tspan
         fill="rgb(0,0,0)"
         stroke="none"
         id="tspan264">Flughöhen mit C6-5 im Vergleich</tspan></tspan></tspan></text>

 <g
   id="g489">
  <defs
   id="defs485">
   <pattern
   id="pattern1"
   x="2392"
   y="1253"
   width="14898"
   height="793"
   patternUnits="userSpaceOnUse">
    <g
   transform="translate(-2392,-1253)"
   id="g482">
     <line
   fill="rgb(178,178,178)"
   stroke="rgb(178,178,178)"
   x1="17242"
   y1="1253"
   x2="17289"
   y2="1300"
   id="line272" />
     <line
   fill="rgb(178,178,178)"
   stroke="rgb(178,178,178)"
   x1="17092"
   y1="1253"
   x2="17289"
   y2="1450"
   id="line274" />
     <line
   fill="rgb(178,178,178)"
   stroke="rgb(178,178,178)"
   x1="16942"
   y1="1253"
   x2="17289"
   y2="1600"
   id="line276" />
     <line
   fill="rgb(178,178,178)"
   stroke="rgb(178,178,178)"
   x1="16792"
   y1="1253"
   x2="17289"
   y2="1750"
   id="line278" />
     <line
   fill="rgb(178,178,178)"
   stroke="rgb(178,178,178)"
   x1="16642"
   y1="1253"
   x2="17289"
   y2="1900"
   id="line280" />
     <line
   fill="rgb(178,178,178)"
   stroke="rgb(178,178,178)"
   x1="16492"
   y1="1253"
   x2="17284"
   y2="2045"
   id="line282" />
     <line
   fill="rgb(178,178,178)"
   stroke="rgb(178,178,178)"
   x1="16342"
   y1="1253"
   x2="17134"
   y2="2045"
   id="line284" />
     <line
   fill="rgb(178,178,178)"
   stroke="rgb(178,178,178)"
   x1="16192"
   y1="1253"
   x2="16984"
   y2="2045"
   id="line286" />
     <line
   fill="rgb(178,178,178)"
   stroke="rgb(178,178,178)"
   x1="16042"
   y1="1253"
   x2="16834"
   y2="2045"
   id="line288" />
     <line
   fill="rgb(178,178,178)"
   stroke="rgb(178,178,178)"
   x1="15892"
   y1="1253"
   x2="16684"
   y2="2045"
   id="line290" />
     <line
   fill="rgb(178,178,178)"
   stroke="rgb(178,178,178)"
   x1="15742"
   y1="1253"
   x2="16534"
   y2="2045"
   id="line292" />
     <line
   fill="rgb(178,178,178)"
   stroke="rgb(178,178,178)"
   x1="15592"
   y1="1253"
   x2="16384"
   y2="2045"
   id="line294" />
     <line
   fill="rgb(178,178,178)"
   stroke="rgb(178,178,178)"
   x1="15442"
   y1="1253"
   x2="16234"
   y2="2045"
   id="line296" />
     <line
   fill="rgb(178,178,178)"
   stroke="rgb(178,178,178)"
   x1="15292"
   y1="1253"
   x2="16084"
   y2="2045"
   id="line298" />
     <line
   fill="rgb(178,178,178)"
   stroke="rgb(178,178,178)"
   x1="15142"
   y1="1253"
   x2="15934"
   y2="2045"
   id="line300" />
     <line
   fill="rgb(178,178,178)"
   stroke="rgb(178,178,178)"
   x1="14992"
   y1="1253"
   x2="15784"
   y2="2045"
   id="line302" />
     <line
   fill="rgb(178,178,178)"
   stroke="rgb(178,178,178)"
   x1="14842"
   y1="1253"
   x2="15634"
   y2="2045"
   id="line304" />
     <line
   fill="rgb(178,178,178)"
   stroke="rgb(178,178,178)"
   x1="14692"
   y1="1253"
   x2="15484"
   y2="2045"
   id="line306" />
     <line
   fill="rgb(178,178,178)"
   stroke="rgb(178,178,178)"
   x1="14542"
   y1="1253"
   x2="15334"
   y2="2045"
   id="line308" />
     <line
   fill="rgb(178,178,178)"
   stroke="rgb(178,178,178)"
   x1="14392"
   y1="1253"
   x2="15184"
   y2="2045"
   id="line310" />
     <line
   fill="rgb(178,178,178)"
   stroke="rgb(178,178,178)"
   x1="14242"
   y1="1253"
   x2="15034"
   y2="2045"
   id="line312" />
     <line
   fill="rgb(178,178,178)"
   stroke="rgb(178,178,178)"
   x1="14092"
   y1="1253"
   x2="14884"
   y2="2045"
   id="line314" />
     <line
   fill="rgb(178,178,178)"
   stroke="rgb(178,178,178)"
   x1="13942"
   y1="1253"
   x2="14734"
   y2="2045"
   id="line316" />
     <line
   fill="rgb(178,178,178)"
   stroke="rgb(178,178,178)"
   x1="13792"
   y1="1253"
   x2="14584"
   y2="2045"
   id="line318" />
     <line
   fill="rgb(178,178,178)"
   stroke="rgb(178,178,178)"
   x1="13642"
   y1="1253"
   x2="14434"
   y2="2045"
   id="line320" />
     <line
   fill="rgb(178,178,178)"
   stroke="rgb(178,178,178)"
   x1="13492"
   y1="1253"
   x2="14284"
   y2="2045"
   id="line322" />
     <line
   fill="rgb(178,178,178)"
   stroke="rgb(178,178,178)"
   x1="13342"
   y1="1253"
   x2="14134"
   y2="2045"
   id="line324" />
     <line
   fill="rgb(178,178,178)"
   stroke="rgb(178,178,178)"
   x1="13192"
   y1="1253"
   x2="13984"
   y2="2045"
   id="line326" />
     <line
   fill="rgb(178,178,178)"
   stroke="rgb(178,178,178)"
   x1="13042"
   y1="1253"
   x2="13834"
   y2="2045"
   id="line328" />
     <line
   fill="rgb(178,178,178)"
   stroke="rgb(178,178,178)"
   x1="12892"
   y1="1253"
   x2="13684"
   y2="2045"
   id="line330" />
     <line
   fill="rgb(178,178,178)"
   stroke="rgb(178,178,178)"
   x1="12742"
   y1="1253"
   x2="13534"
   y2="2045"
   id="line332" />
     <line
   fill="rgb(178,178,178)"
   stroke="rgb(178,178,178)"
   x1="12592"
   y1="1253"
   x2="13384"
   y2="2045"
   id="line334" />
     <line
   fill="rgb(178,178,178)"
   stroke="rgb(178,178,178)"
   x1="12442"
   y1="1253"
   x2="13234"
   y2="2045"
   id="line336" />
     <line
   fill="rgb(178,178,178)"
   stroke="rgb(178,178,178)"
   x1="12292"
   y1="1253"
   x2="13084"
   y2="2045"
   id="line338" />
     <line
   fill="rgb(178,178,178)"
   stroke="rgb(178,178,178)"
   x1="12142"
   y1="1253"
   x2="12934"
   y2="2045"
   id="line340" />
     <line
   fill="rgb(178,178,178)"
   stroke="rgb(178,178,178)"
   x1="11992"
   y1="1253"
   x2="12784"
   y2="2045"
   id="line342" />
     <line
   fill="rgb(178,178,178)"
   stroke="rgb(178,178,178)"
   x1="11842"
   y1="1253"
   x2="12634"
   y2="2045"
   id="line344" />
     <line
   fill="rgb(178,178,178)"
   stroke="rgb(178,178,178)"
   x1="11692"
   y1="1253"
   x2="12484"
   y2="2045"
   id="line346" />
     <line
   fill="rgb(178,178,178)"
   stroke="rgb(178,178,178)"
   x1="11542"
   y1="1253"
   x2="12334"
   y2="2045"
   id="line348" />
     <line
   fill="rgb(178,178,178)"
   stroke="rgb(178,178,178)"
   x1="11392"
   y1="1253"
   x2="12184"
   y2="2045"
   id="line350" />
     <line
   fill="rgb(178,178,178)"
   stroke="rgb(178,178,178)"
   x1="11242"
   y1="1253"
   x2="12034"
   y2="2045"
   id="line352" />
     <line
   fill="rgb(178,178,178)"
   stroke="rgb(178,178,178)"
   x1="11092"
   y1="1253"
   x2="11884"
   y2="2045"
   id="line354" />
     <line
   fill="rgb(178,178,178)"
   stroke="rgb(178,178,178)"
   x1="10942"
   y1="1253"
   x2="11734"
   y2="2045"
   id="line356" />
     <line
   fill="rgb(178,178,178)"
   stroke="rgb(178,178,178)"
   x1="10792"
   y1="1253"
   x2="11584"
   y2="2045"
   id="line358" />
     <line
   fill="rgb(178,178,178)"
   stroke="rgb(178,178,178)"
   x1="10642"
   y1="1253"
   x2="11434"
   y2="2045"
   id="line360" />
     <line
   fill="rgb(178,178,178)"
   stroke="rgb(178,178,178)"
   x1="10492"
   y1="1253"
   x2="11284"
   y2="2045"
   id="line362" />
     <line
   fill="rgb(178,178,178)"
   stroke="rgb(178,178,178)"
   x1="10342"
   y1="1253"
   x2="11134"
   y2="2045"
   id="line364" />
     <line
   fill="rgb(178,178,178)"
   stroke="rgb(178,178,178)"
   x1="10192"
   y1="1253"
   x2="10984"
   y2="2045"
   id="line366" />
     <line
   fill="rgb(178,178,178)"
   stroke="rgb(178,178,178)"
   x1="10042"
   y1="1253"
   x2="10834"
   y2="2045"
   id="line368" />
     <line
   fill="rgb(178,178,178)"
   stroke="rgb(178,178,178)"
   x1="9892"
   y1="1253"
   x2="10684"
   y2="2045"
   id="line370" />
     <line
   fill="rgb(178,178,178)"
   stroke="rgb(178,178,178)"
   x1="9742"
   y1="1253"
   x2="10534"
   y2="2045"
   id="line372" />
     <line
   fill="rgb(178,178,178)"
   stroke="rgb(178,178,178)"
   x1="9592"
   y1="1253"
   x2="10384"
   y2="2045"
   id="line374" />
     <line
   fill="rgb(178,178,178)"
   stroke="rgb(178,178,178)"
   x1="9442"
   y1="1253"
   x2="10234"
   y2="2045"
   id="line376" />
     <line
   fill="rgb(178,178,178)"
   stroke="rgb(178,178,178)"
   x1="9292"
   y1="1253"
   x2="10084"
   y2="2045"
   id="line378" />
     <line
   fill="rgb(178,178,178)"
   stroke="rgb(178,178,178)"
   x1="9142"
   y1="1253"
   x2="9934"
   y2="2045"
   id="line380" />
     <line
   fill="rgb(178,178,178)"
   stroke="rgb(178,178,178)"
   x1="8992"
   y1="1253"
   x2="9784"
   y2="2045"
   id="line382" />
     <line
   fill="rgb(178,178,178)"
   stroke="rgb(178,178,178)"
   x1="8842"
   y1="1253"
   x2="9634"
   y2="2045"
   id="line384" />
     <line
   fill="rgb(178,178,178)"
   stroke="rgb(178,178,178)"
   x1="8692"
   y1="1253"
   x2="9484"
   y2="2045"
   id="line386" />
     <line
   fill="rgb(178,178,178)"
   stroke="rgb(178,178,178)"
   x1="8542"
   y1="1253"
   x2="9334"
   y2="2045"
   id="line388" />
     <line
   fill="rgb(178,178,178)"
   stroke="rgb(178,178,178)"
   x1="8392"
   y1="1253"
   x2="9184"
   y2="2045"
   id="line390" />
     <line
   fill="rgb(178,178,178)"
   stroke="rgb(178,178,178)"
   x1="8242"
   y1="1253"
   x2="9034"
   y2="2045"
   id="line392" />
     <line
   fill="rgb(178,178,178)"
   stroke="rgb(178,178,178)"
   x1="8092"
   y1="1253"
   x2="8884"
   y2="2045"
   id="line394" />
     <line
   fill="rgb(178,178,178)"
   stroke="rgb(178,178,178)"
   x1="7942"
   y1="1253"
   x2="8734"
   y2="2045"
   id="line396" />
     <line
   fill="rgb(178,178,178)"
   stroke="rgb(178,178,178)"
   x1="7792"
   y1="1253"
   x2="8584"
   y2="2045"
   id="line398" />
     <line
   fill="rgb(178,178,178)"
   stroke="rgb(178,178,178)"
   x1="7642"
   y1="1253"
   x2="8434"
   y2="2045"
   id="line400" />
     <line
   fill="rgb(178,178,178)"
   stroke="rgb(178,178,178)"
   x1="7492"
   y1="1253"
   x2="8284"
   y2="2045"
   id="line402" />
     <line
   fill="rgb(178,178,178)"
   stroke="rgb(178,178,178)"
   x1="7342"
   y1="1253"
   x2="8134"
   y2="2045"
   id="line404" />
     <line
   fill="rgb(178,178,178)"
   stroke="rgb(178,178,178)"
   x1="7192"
   y1="1253"
   x2="7984"
   y2="2045"
   id="line406" />
     <line
   fill="rgb(178,178,178)"
   stroke="rgb(178,178,178)"
   x1="7042"
   y1="1253"
   x2="7834"
   y2="2045"
   id="line408" />
     <line
   fill="rgb(178,178,178)"
   stroke="rgb(178,178,178)"
   x1="6892"
   y1="1253"
   x2="7684"
   y2="2045"
   id="line410" />
     <line
   fill="rgb(178,178,178)"
   stroke="rgb(178,178,178)"
   x1="6742"
   y1="1253"
   x2="7534"
   y2="2045"
   id="line412" />
     <line
   fill="rgb(178,178,178)"
   stroke="rgb(178,178,178)"
   x1="6592"
   y1="1253"
   x2="7384"
   y2="2045"
   id="line414" />
     <line
   fill="rgb(178,178,178)"
   stroke="rgb(178,178,178)"
   x1="6442"
   y1="1253"
   x2="7234"
   y2="2045"
   id="line416" />
     <line
   fill="rgb(178,178,178)"
   stroke="rgb(178,178,178)"
   x1="6292"
   y1="1253"
   x2="7084"
   y2="2045"
   id="line418" />
     <line
   fill="rgb(178,178,178)"
   stroke="rgb(178,178,178)"
   x1="6142"
   y1="1253"
   x2="6934"
   y2="2045"
   id="line420" />
     <line
   fill="rgb(178,178,178)"
   stroke="rgb(178,178,178)"
   x1="5992"
   y1="1253"
   x2="6784"
   y2="2045"
   id="line422" />
     <line
   fill="rgb(178,178,178)"
   stroke="rgb(178,178,178)"
   x1="5842"
   y1="1253"
   x2="6634"
   y2="2045"
   id="line424" />
     <line
   fill="rgb(178,178,178)"
   stroke="rgb(178,178,178)"
   x1="5692"
   y1="1253"
   x2="6484"
   y2="2045"
   id="line426" />
     <line
   fill="rgb(178,178,178)"
   stroke="rgb(178,178,178)"
   x1="5542"
   y1="1253"
   x2="6334"
   y2="2045"
   id="line428" />
     <line
   fill="rgb(178,178,178)"
   stroke="rgb(178,178,178)"
   x1="5392"
   y1="1253"
   x2="6184"
   y2="2045"
   id="line430" />
     <line
   fill="rgb(178,178,178)"
   stroke="rgb(178,178,178)"
   x1="5242"
   y1="1253"
   x2="6034"
   y2="2045"
   id="line432" />
     <line
   fill="rgb(178,178,178)"
   stroke="rgb(178,178,178)"
   x1="5092"
   y1="1253"
   x2="5884"
   y2="2045"
   id="line434" />
     <line
   fill="rgb(178,178,178)"
   stroke="rgb(178,178,178)"
   x1="4942"
   y1="1253"
   x2="5734"
   y2="2045"
   id="line436" />
     <line
   fill="rgb(178,178,178)"
   stroke="rgb(178,178,178)"
   x1="4792"
   y1="1253"
   x2="5584"
   y2="2045"
   id="line438" />
     <line
   fill="rgb(178,178,178)"
   stroke="rgb(178,178,178)"
   x1="4642"
   y1="1253"
   x2="5434"
   y2="2045"
   id="line440" />
     <line
   fill="rgb(178,178,178)"
   stroke="rgb(178,178,178)"
   x1="4492"
   y1="1253"
   x2="5284"
   y2="2045"
   id="line442" />
     <line
   fill="rgb(178,178,178)"
   stroke="rgb(178,178,178)"
   x1="4342"
   y1="1253"
   x2="5134"
   y2="2045"
   id="line444" />
     <line
   fill="rgb(178,178,178)"
   stroke="rgb(178,178,178)"
   x1="4192"
   y1="1253"
   x2="4984"
   y2="2045"
   id="line446" />
     <line
   fill="rgb(178,178,178)"
   stroke="rgb(178,178,178)"
   x1="4042"
   y1="1253"
   x2="4834"
   y2="2045"
   id="line448" />
     <line
   fill="rgb(178,178,178)"
   stroke="rgb(178,178,178)"
   x1="3892"
   y1="1253"
   x2="4684"
   y2="2045"
   id="line450" />
     <line
   fill="rgb(178,178,178)"
   stroke="rgb(178,178,178)"
   x1="3742"
   y1="1253"
   x2="4534"
   y2="2045"
   id="line452" />
     <line
   fill="rgb(178,178,178)"
   stroke="rgb(178,178,178)"
   x1="3592"
   y1="1253"
   x2="4384"
   y2="2045"
   id="line454" />
     <line
   fill="rgb(178,178,178)"
   stroke="rgb(178,178,178)"
   x1="3442"
   y1="1253"
   x2="4234"
   y2="2045"
   id="line456" />
     <line
   fill="rgb(178,178,178)"
   stroke="rgb(178,178,178)"
   x1="3292"
   y1="1253"
   x2="4084"
   y2="2045"
   id="line458" />
     <line
   fill="rgb(178,178,178)"
   stroke="rgb(178,178,178)"
   x1="3142"
   y1="1253"
   x2="3934"
   y2="2045"
   id="line460" />
     <line
   fill="rgb(178,178,178)"
   stroke="rgb(178,178,178)"
   x1="2992"
   y1="1253"
   x2="3784"
   y2="2045"
   id="line462" />
     <line
   fill="rgb(178,178,178)"
   stroke="rgb(178,178,178)"
   x1="2842"
   y1="1253"
   x2="3634"
   y2="2045"
   id="line464" />
     <line
   fill="rgb(178,178,178)"
   stroke="rgb(178,178,178)"
   x1="2692"
   y1="1253"
   x2="3484"
   y2="2045"
   id="line466" />
     <line
   fill="rgb(178,178,178)"
   stroke="rgb(178,178,178)"
   x1="2542"
   y1="1253"
   x2="3334"
   y2="2045"
   id="line468" />
     <line
   fill="rgb(178,178,178)"
   stroke="rgb(178,178,178)"
   x1="2392"
   y1="1253"
   x2="3184"
   y2="2045"
   id="line470" />
     <line
   fill="rgb(178,178,178)"
   stroke="rgb(178,178,178)"
   x1="2392"
   y1="1403"
   x2="3034"
   y2="2045"
   id="line472" />
     <line
   fill="rgb(178,178,178)"
   stroke="rgb(178,178,178)"
   x1="2392"
   y1="1553"
   x2="2884"
   y2="2045"
   id="line474" />
     <line
   fill="rgb(178,178,178)"
   stroke="rgb(178,178,178)"
   x1="2392"
   y1="1703"
   x2="2734"
   y2="2045"
   id="line476" />
     <line
   fill="rgb(178,178,178)"
   stroke="rgb(178,178,178)"
   x1="2392"
   y1="1853"
   x2="2584"
   y2="2045"
   id="line478" />
     <line
   fill="rgb(178,178,178)"
   stroke="rgb(178,178,178)"
   x1="2392"
   y1="2003"
   x2="2434"
   y2="2045"
   id="line480" />
    </g>
   </pattern>
  </defs>
  <path
   style="fill:url(#pattern1)"
   d="M 9840,2045 L 2392,2045 2392,1253 17289,1253 17289,2045 9840,2045 Z"
   id="path487" />
 </g>
 <path
   fill="none"
   stroke="rgb(0,0,0)"
   stroke-linejoin="round"
   d="M 9840,2045 L 2392,2045 2392,1253 17289,1253 17289,2045 9840,2045 Z"
   id="path491" />
 <path
   fill="rgb(0,69,134)"
   stroke="none"
   d="M 3785,1786 L 3648,1786 3648,1511 3923,1511 3923,1786 3785,1786 Z"
   id="path493" />
 <path
   fill="rgb(255,66,14)"
   stroke="none"
   d="M 9114,1786 L 8977,1786 8977,1511 9251,1511 9251,1786 9114,1786 Z"
   id="path495" />
 <path
   fill="rgb(255,211,32)"
   stroke="none"
   d="M 13359,1786 L 13221,1786 13221,1511 13496,1511 13496,1786 13359,1786 Z"
   id="path497" />
 <text
   class="TextShape"
   id="text505"><tspan
     class="TextParagraph"
     font-family="Liberation Sans, sans-serif"
     font-size="459px"
     font-weight="400"
     id="tspan503"><tspan
       class="TextPosition"
       x="4023"
       y="1794"
       id="tspan501"><tspan
         fill="rgb(0,0,0)"
         stroke="none"
         id="tspan499">Eigene Simulation</tspan></tspan></tspan></text>

 <text
   class="TextShape"
   id="text513"><tspan
     class="TextParagraph"
     font-family="Liberation Sans, sans-serif"
     font-size="459px"
     font-weight="400"
     id="tspan511"><tspan
       class="TextPosition"
       x="9351"
       y="1794"
       id="tspan509"><tspan
         fill="rgb(0,0,0)"
         stroke="none"
         id="tspan507">OpenRocket</tspan></tspan></tspan></text>

 <text
   class="TextShape"
   id="text521"><tspan
     class="TextParagraph"
     font-family="Liberation Sans, sans-serif"
     font-size="459px"
     font-weight="400"
     id="tspan519"><tspan
       class="TextPosition"
       x="13596"
       y="1794"
       id="tspan517"><tspan
         fill="rgb(0,0,0)"
         stroke="none"
         id="tspan515">Flugversuch</tspan></tspan></tspan></text>

 <text
   class="TextShape"
   transform="translate(719,6922) rotate(-90) translate(-719,-6922)"
   id="text529"><tspan
     class="TextParagraph"
     font-family="Liberation Sans, sans-serif"
     font-size="459px"
     font-weight="400"
     id="tspan527"><tspan
       class="TextPosition"
       x="719"
       y="6922"
       id="tspan525"><tspan
         fill="rgb(0,0,0)"
         stroke="none"
         id="tspan523">Flughöhe [m]</tspan></tspan></tspan></text>

</svg>