<?xml version="1.0" encoding="UTF-8" standalone="no"?>
<svg
   xmlns:dc="http://purl.org/dc/elements/1.1/"
   xmlns:cc="http://creativecommons.org/ns#"
   xmlns:rdf="http://www.w3.org/1999/02/22-rdf-syntax-ns#"
   xmlns:svg="http://www.w3.org/2000/svg"
   xmlns="http://www.w3.org/2000/svg"
   xmlns:sodipodi="http://sodipodi.sourceforge.net/DTD/sodipodi-0.dtd"
   xmlns:inkscape="http://www.inkscape.org/namespaces/inkscape"
   width="160mm"
   height="113mm"
   viewBox="0 0 16000 11300"
   version="1.1"
   stroke-width="28.222"
   stroke-linejoin="round"
   xml:space="preserve"
   id="svg575"
   sodipodi:docname="Benni-Ergebnisse.svg"
   inkscape:export-filename="/home/jeremias/Schule/sf452/Jugend Forscht/Bilder/Benni-Ergebnisse.png"
   inkscape:export-xdpi="300"
   inkscape:export-ydpi="300"
   inkscape:version="0.92.3 (2405546, 2018-03-11)"><metadata
   id="metadata581"><rdf:RDF><cc:Work
       rdf:about=""><dc:format>image/svg+xml</dc:format><dc:type
         rdf:resource="http://purl.org/dc/dcmitype/StillImage" /></cc:Work></rdf:RDF></metadata><defs
   id="defs579" /><sodipodi:namedview
   pagecolor="#ffffff"
   bordercolor="#666666"
   borderopacity="1"
   objecttolerance="10"
   gridtolerance="10"
   guidetolerance="10"
   inkscape:pageopacity="0"
   inkscape:pageshadow="2"
   inkscape:window-width="1920"
   inkscape:window-height="1049"
   id="namedview577"
   showgrid="false"
   inkscape:zoom="0.55258112"
   inkscape:cx="-161.82303"
   inkscape:cy="213.54331"
   inkscape:window-x="0"
   inkscape:window-y="0"
   inkscape:window-maximized="1"
   inkscape:current-layer="svg575" />
 <path
   fill="rgb(255,255,255)"
   stroke="none"
   d="M 8009,11303 L 9,11303 9,3 16009,3 16009,11303 8009,11303 Z"
   id="path2" />
 <path
   fill="none"
   stroke="rgb(179,179,179)"
   stroke-linejoin="round"
   d="M 8807,9600 L 2209,9600 2209,1303 15406,1303 15406,9600 8807,9600 Z"
   id="path4" />
 <path
   fill="none"
   stroke="rgb(179,179,179)"
   stroke-linejoin="round"
   d="M 15406,9599 L 2209,9599"
   id="path6" />
 <path
   fill="none"
   stroke="rgb(179,179,179)"
   stroke-linejoin="round"
   d="M 15406,8769 L 2209,8769"
   id="path8" />
 <path
   fill="none"
   stroke="rgb(179,179,179)"
   stroke-linejoin="round"
   d="M 15406,7939 L 2209,7939"
   id="path10" />
 <path
   fill="none"
   stroke="rgb(179,179,179)"
   stroke-linejoin="round"
   d="M 15406,7109 L 2209,7109"
   id="path12" />
 <path
   fill="none"
   stroke="rgb(179,179,179)"
   stroke-linejoin="round"
   d="M 15406,6279 L 2209,6279"
   id="path14" />
 <path
   fill="none"
   stroke="rgb(179,179,179)"
   stroke-linejoin="round"
   d="M 15406,5450 L 2209,5450"
   id="path16" />
 <path
   fill="none"
   stroke="rgb(179,179,179)"
   stroke-linejoin="round"
   d="M 15406,4621 L 2209,4621"
   id="path18" />
 <path
   fill="none"
   stroke="rgb(179,179,179)"
   stroke-linejoin="round"
   d="M 15406,3791 L 2209,3791"
   id="path20" />
 <path
   fill="none"
   stroke="rgb(179,179,179)"
   stroke-linejoin="round"
   d="M 15406,2961 L 2209,2961"
   id="path22" />
 <path
   fill="none"
   stroke="rgb(179,179,179)"
   stroke-linejoin="round"
   d="M 15406,2131 L 2209,2131"
   id="path24" />
 <path
   fill="none"
   stroke="rgb(179,179,179)"
   stroke-linejoin="round"
   d="M 15406,1301 L 2209,1301"
   id="path26" />
 <path
   fill="none"
   stroke="rgb(179,179,179)"
   stroke-linejoin="round"
   d="M 2209,9749 L 2209,9599"
   id="path28" />
 <path
   fill="none"
   stroke="rgb(179,179,179)"
   stroke-linejoin="round"
   d="M 2209,9749 L 2209,9599"
   id="path30" />
 <path
   fill="none"
   stroke="rgb(179,179,179)"
   stroke-linejoin="round"
   d="M 5351,9749 L 5351,9599"
   id="path32" />
 <path
   fill="none"
   stroke="rgb(179,179,179)"
   stroke-linejoin="round"
   d="M 5351,9749 L 5351,9599"
   id="path34" />
 <path
   fill="none"
   stroke="rgb(179,179,179)"
   stroke-linejoin="round"
   d="M 8492,9749 L 8492,9599"
   id="path36" />
 <path
   fill="none"
   stroke="rgb(179,179,179)"
   stroke-linejoin="round"
   d="M 8492,9749 L 8492,9599"
   id="path38" />
 <path
   fill="none"
   stroke="rgb(179,179,179)"
   stroke-linejoin="round"
   d="M 11635,9749 L 11635,9599"
   id="path40" />
 <path
   fill="none"
   stroke="rgb(179,179,179)"
   stroke-linejoin="round"
   d="M 11635,9749 L 11635,9599"
   id="path42" />
 <path
   fill="none"
   stroke="rgb(179,179,179)"
   stroke-linejoin="round"
   d="M 14777,9749 L 14777,9599"
   id="path44" />
 <path
   fill="none"
   stroke="rgb(179,179,179)"
   stroke-linejoin="round"
   d="M 14777,9749 L 14777,9599"
   id="path46" />
 <path
   fill="none"
   stroke="rgb(179,179,179)"
   stroke-linejoin="round"
   d="M 2209,9599 L 15406,9599"
   id="path48" />
 <path
   fill="none"
   stroke="rgb(179,179,179)"
   stroke-linejoin="round"
   d="M 2059,9599 L 2209,9599"
   id="path50" />
 <path
   fill="none"
   stroke="rgb(179,179,179)"
   stroke-linejoin="round"
   d="M 2059,9599 L 2209,9599"
   id="path52" />
 <path
   fill="none"
   stroke="rgb(179,179,179)"
   stroke-linejoin="round"
   d="M 2059,8769 L 2209,8769"
   id="path54" />
 <path
   fill="none"
   stroke="rgb(179,179,179)"
   stroke-linejoin="round"
   d="M 2059,8769 L 2209,8769"
   id="path56" />
 <path
   fill="none"
   stroke="rgb(179,179,179)"
   stroke-linejoin="round"
   d="M 2059,7939 L 2209,7939"
   id="path58" />
 <path
   fill="none"
   stroke="rgb(179,179,179)"
   stroke-linejoin="round"
   d="M 2059,7939 L 2209,7939"
   id="path60" />
 <path
   fill="none"
   stroke="rgb(179,179,179)"
   stroke-linejoin="round"
   d="M 2059,7109 L 2209,7109"
   id="path62" />
 <path
   fill="none"
   stroke="rgb(179,179,179)"
   stroke-linejoin="round"
   d="M 2059,7109 L 2209,7109"
   id="path64" />
 <path
   fill="none"
   stroke="rgb(179,179,179)"
   stroke-linejoin="round"
   d="M 2059,6279 L 2209,6279"
   id="path66" />
 <path
   fill="none"
   stroke="rgb(179,179,179)"
   stroke-linejoin="round"
   d="M 2059,6279 L 2209,6279"
   id="path68" />
 <path
   fill="none"
   stroke="rgb(179,179,179)"
   stroke-linejoin="round"
   d="M 2059,5451 L 2209,5451"
   id="path70" />
 <path
   fill="none"
   stroke="rgb(179,179,179)"
   stroke-linejoin="round"
   d="M 2059,5451 L 2209,5451"
   id="path72" />
 <path
   fill="none"
   stroke="rgb(179,179,179)"
   stroke-linejoin="round"
   d="M 2059,4621 L 2209,4621"
   id="path74" />
 <path
   fill="none"
   stroke="rgb(179,179,179)"
   stroke-linejoin="round"
   d="M 2059,4621 L 2209,4621"
   id="path76" />
 <path
   fill="none"
   stroke="rgb(179,179,179)"
   stroke-linejoin="round"
   d="M 2059,3791 L 2209,3791"
   id="path78" />
 <path
   fill="none"
   stroke="rgb(179,179,179)"
   stroke-linejoin="round"
   d="M 2059,3791 L 2209,3791"
   id="path80" />
 <path
   fill="none"
   stroke="rgb(179,179,179)"
   stroke-linejoin="round"
   d="M 2059,2961 L 2209,2961"
   id="path82" />
 <path
   fill="none"
   stroke="rgb(179,179,179)"
   stroke-linejoin="round"
   d="M 2059,2961 L 2209,2961"
   id="path84" />
 <path
   fill="none"
   stroke="rgb(179,179,179)"
   stroke-linejoin="round"
   d="M 2059,2131 L 2209,2131"
   id="path86" />
 <path
   fill="none"
   stroke="rgb(179,179,179)"
   stroke-linejoin="round"
   d="M 2059,2131 L 2209,2131"
   id="path88" />
 <path
   fill="none"
   stroke="rgb(179,179,179)"
   stroke-linejoin="round"
   d="M 2059,1302 L 2209,1302"
   id="path90" />
 <path
   fill="none"
   stroke="rgb(179,179,179)"
   stroke-linejoin="round"
   d="M 2059,1302 L 2209,1302"
   id="path92" />
 <path
   fill="none"
   stroke="rgb(179,179,179)"
   stroke-linejoin="round"
   d="M 2209,9599 L 2209,1302"
   id="path94" />
 <path
   fill="none"
   stroke="rgb(0,102,179)"
   stroke-width="80"
   stroke-linejoin="round"
   d="M 2209,9599 L 7708,7939 9259,7109 10441,6279 11490,5450 12351,4621 13168,3791 14004,2961 14896,2131"
   id="path96" />
 <path
   fill="rgb(0,102,179)"
   stroke="none"
   d="M 2084,9474 L 2084,9724 2334,9599 2084,9474 Z"
   id="path98" />
 <path
   fill="none"
   stroke="rgb(0,102,179)"
   stroke-linejoin="round"
   d="M 2084,9474 L 2084,9724 2334,9599 2084,9474 Z"
   id="path100" />
 <path
   fill="rgb(0,102,179)"
   stroke="none"
   d="M 7583,7814 L 7583,8064 7833,7939 7583,7814 Z"
   id="path102" />
 <path
   fill="none"
   stroke="rgb(0,102,179)"
   stroke-linejoin="round"
   d="M 7583,7814 L 7583,8064 7833,7939 7583,7814 Z"
   id="path104" />
 <path
   fill="rgb(0,102,179)"
   stroke="none"
   d="M 9134,6984 L 9134,7234 9384,7109 9134,6984 Z"
   id="path106" />
 <path
   fill="none"
   stroke="rgb(0,102,179)"
   stroke-linejoin="round"
   d="M 9134,6984 L 9134,7234 9384,7109 9134,6984 Z"
   id="path108" />
 <path
   fill="rgb(0,102,179)"
   stroke="none"
   d="M 10316,6154 L 10316,6404 10566,6279 10316,6154 Z"
   id="path110" />
 <path
   fill="none"
   stroke="rgb(0,102,179)"
   stroke-linejoin="round"
   d="M 10316,6154 L 10316,6404 10566,6279 10316,6154 Z"
   id="path112" />
 <path
   fill="rgb(0,102,179)"
   stroke="none"
   d="M 11365,5325 L 11365,5575 11615,5450 11365,5325 Z"
   id="path114" />
 <path
   fill="none"
   stroke="rgb(0,102,179)"
   stroke-linejoin="round"
   d="M 11365,5325 L 11365,5575 11615,5450 11365,5325 Z"
   id="path116" />
 <path
   fill="rgb(0,102,179)"
   stroke="none"
   d="M 12226,4496 L 12226,4746 12476,4621 12226,4496 Z"
   id="path118" />
 <path
   fill="none"
   stroke="rgb(0,102,179)"
   stroke-linejoin="round"
   d="M 12226,4496 L 12226,4746 12476,4621 12226,4496 Z"
   id="path120" />
 <path
   fill="rgb(0,102,179)"
   stroke="none"
   d="M 13043,3666 L 13043,3916 13293,3791 13043,3666 Z"
   id="path122" />
 <path
   fill="none"
   stroke="rgb(0,102,179)"
   stroke-linejoin="round"
   d="M 13043,3666 L 13043,3916 13293,3791 13043,3666 Z"
   id="path124" />
 <path
   fill="rgb(0,102,179)"
   stroke="none"
   d="M 13879,2836 L 13879,3086 14129,2961 13879,2836 Z"
   id="path126" />
 <path
   fill="none"
   stroke="rgb(0,102,179)"
   stroke-linejoin="round"
   d="M 13879,2836 L 13879,3086 14129,2961 13879,2836 Z"
   id="path128" />
 <path
   fill="rgb(0,102,179)"
   stroke="none"
   d="M 14771,2006 L 14771,2256 15021,2131 14771,2006 Z"
   id="path130" />
 <path
   fill="none"
   stroke="rgb(0,102,179)"
   stroke-linejoin="round"
   d="M 14771,2006 L 14771,2256 15021,2131 14771,2006 Z"
   id="path132" />
 <path
   fill="none"
   stroke="rgb(255,242,0)"
   stroke-width="80"
   stroke-linejoin="round"
   d="M 2209,9599 L 9158,7939 10189,7109 11886,6279 12848,5450 13671,4621 14620,3791"
   id="path134" />
 <path
   fill="rgb(255,242,0)"
   stroke="none"
   d="M 2084,9724 L 2334,9724 2209,9474 2084,9724 Z"
   id="path136" />
 <path
   fill="none"
   stroke="rgb(255,242,0)"
   stroke-linejoin="round"
   d="M 2084,9724 L 2334,9724 2209,9474 2084,9724 Z"
   id="path138" />
 <path
   fill="rgb(255,242,0)"
   stroke="none"
   d="M 9033,8064 L 9283,8064 9158,7814 9033,8064 Z"
   id="path140" />
 <path
   fill="none"
   stroke="rgb(255,242,0)"
   stroke-linejoin="round"
   d="M 9033,8064 L 9283,8064 9158,7814 9033,8064 Z"
   id="path142" />
 <path
   fill="rgb(255,242,0)"
   stroke="none"
   d="M 10064,7234 L 10314,7234 10189,6984 10064,7234 Z"
   id="path144" />
 <path
   fill="none"
   stroke="rgb(255,242,0)"
   stroke-linejoin="round"
   d="M 10064,7234 L 10314,7234 10189,6984 10064,7234 Z"
   id="path146" />
 <path
   fill="rgb(255,242,0)"
   stroke="none"
   d="M 11761,6404 L 12011,6404 11886,6154 11761,6404 Z"
   id="path148" />
 <path
   fill="none"
   stroke="rgb(255,242,0)"
   stroke-linejoin="round"
   d="M 11761,6404 L 12011,6404 11886,6154 11761,6404 Z"
   id="path150" />
 <path
   fill="rgb(255,242,0)"
   stroke="none"
   d="M 12723,5575 L 12973,5575 12848,5325 12723,5575 Z"
   id="path152" />
 <path
   fill="none"
   stroke="rgb(255,242,0)"
   stroke-linejoin="round"
   d="M 12723,5575 L 12973,5575 12848,5325 12723,5575 Z"
   id="path154" />
 <path
   fill="rgb(255,242,0)"
   stroke="none"
   d="M 13546,4746 L 13796,4746 13671,4496 13546,4746 Z"
   id="path156" />
 <path
   fill="none"
   stroke="rgb(255,242,0)"
   stroke-linejoin="round"
   d="M 13546,4746 L 13796,4746 13671,4496 13546,4746 Z"
   id="path158" />
 <path
   fill="rgb(255,242,0)"
   stroke="none"
   d="M 14495,3916 L 14745,3916 14620,3666 14495,3916 Z"
   id="path160" />
 <path
   fill="none"
   stroke="rgb(255,242,0)"
   stroke-linejoin="round"
   d="M 14495,3916 L 14745,3916 14620,3666 14495,3916 Z"
   id="path162" />
 <path
   fill="none"
   stroke="rgb(250,166,26)"
   stroke-width="80"
   stroke-linejoin="round"
   d="M 2209,9599 L 8675,7939 10617,7109 12383,6279 13332,5450 14645,4621"
   id="path164" />
 <path
   fill="rgb(250,166,26)"
   stroke="none"
   d="M 2084,9474 L 2209,9724 2334,9474 2084,9474 Z"
   id="path166" />
 <path
   fill="none"
   stroke="rgb(250,166,26)"
   stroke-linejoin="round"
   d="M 2084,9474 L 2209,9724 2334,9474 2084,9474 Z"
   id="path168" />
 <path
   fill="rgb(250,166,26)"
   stroke="none"
   d="M 8550,7814 L 8675,8064 8800,7814 8550,7814 Z"
   id="path170" />
 <path
   fill="none"
   stroke="rgb(250,166,26)"
   stroke-linejoin="round"
   d="M 8550,7814 L 8675,8064 8800,7814 8550,7814 Z"
   id="path172" />
 <path
   fill="rgb(250,166,26)"
   stroke="none"
   d="M 10492,6984 L 10617,7234 10742,6984 10492,6984 Z"
   id="path174" />
 <path
   fill="none"
   stroke="rgb(250,166,26)"
   stroke-linejoin="round"
   d="M 10492,6984 L 10617,7234 10742,6984 10492,6984 Z"
   id="path176" />
 <path
   fill="rgb(250,166,26)"
   stroke="none"
   d="M 12258,6154 L 12383,6404 12508,6154 12258,6154 Z"
   id="path178" />
 <path
   fill="none"
   stroke="rgb(250,166,26)"
   stroke-linejoin="round"
   d="M 12258,6154 L 12383,6404 12508,6154 12258,6154 Z"
   id="path180" />
 <path
   fill="rgb(250,166,26)"
   stroke="none"
   d="M 13207,5325 L 13332,5575 13457,5325 13207,5325 Z"
   id="path182" />
 <path
   fill="none"
   stroke="rgb(250,166,26)"
   stroke-linejoin="round"
   d="M 13207,5325 L 13332,5575 13457,5325 13207,5325 Z"
   id="path184" />
 <path
   fill="rgb(250,166,26)"
   stroke="none"
   d="M 14520,4496 L 14645,4746 14770,4496 14520,4496 Z"
   id="path186" />
 <path
   fill="none"
   stroke="rgb(250,166,26)"
   stroke-linejoin="round"
   d="M 14520,4496 L 14645,4746 14770,4496 14520,4496 Z"
   id="path188" />
 <path
   fill="none"
   stroke="rgb(0,134,75)"
   stroke-width="80"
   stroke-linejoin="round"
   d="M 2209,9599 L 8505,7939 10748,7109 12326,6279 13878,5450 14790,4621"
   id="path190" />
 <path
   fill="rgb(0,134,75)"
   stroke="none"
   d="M 2084,9599 L 2209,9724 2334,9599 2209,9474 2084,9599 Z"
   id="path192" />
 <path
   fill="none"
   stroke="rgb(0,134,75)"
   stroke-linejoin="round"
   d="M 2084,9599 L 2209,9724 2334,9599 2209,9474 2084,9599 Z"
   id="path194" />
 <path
   fill="rgb(0,134,75)"
   stroke="none"
   d="M 8380,7939 L 8505,8064 8630,7939 8505,7814 8380,7939 Z"
   id="path196" />
 <path
   fill="none"
   stroke="rgb(0,134,75)"
   stroke-linejoin="round"
   d="M 8380,7939 L 8505,8064 8630,7939 8505,7814 8380,7939 Z"
   id="path198" />
 <path
   fill="rgb(0,134,75)"
   stroke="none"
   d="M 10623,7109 L 10748,7234 10873,7109 10748,6984 10623,7109 Z"
   id="path200" />
 <path
   fill="none"
   stroke="rgb(0,134,75)"
   stroke-linejoin="round"
   d="M 10623,7109 L 10748,7234 10873,7109 10748,6984 10623,7109 Z"
   id="path202" />
 <path
   fill="rgb(0,134,75)"
   stroke="none"
   d="M 12201,6279 L 12326,6404 12451,6279 12326,6154 12201,6279 Z"
   id="path204" />
 <path
   fill="none"
   stroke="rgb(0,134,75)"
   stroke-linejoin="round"
   d="M 12201,6279 L 12326,6404 12451,6279 12326,6154 12201,6279 Z"
   id="path206" />
 <path
   fill="rgb(0,134,75)"
   stroke="none"
   d="M 13753,5450 L 13878,5575 14003,5450 13878,5325 13753,5450 Z"
   id="path208" />
 <path
   fill="none"
   stroke="rgb(0,134,75)"
   stroke-linejoin="round"
   d="M 13753,5450 L 13878,5575 14003,5450 13878,5325 13753,5450 Z"
   id="path210" />
 <path
   fill="rgb(0,134,75)"
   stroke="none"
   d="M 14665,4621 L 14790,4746 14915,4621 14790,4496 14665,4621 Z"
   id="path212" />
 <path
   fill="none"
   stroke="rgb(0,134,75)"
   stroke-linejoin="round"
   d="M 14665,4621 L 14790,4746 14915,4621 14790,4496 14665,4621 Z"
   id="path214" />
 <path
   fill="none"
   stroke="rgb(237,28,36)"
   stroke-width="80"
   stroke-linejoin="round"
   d="M 2209,9599 L 9278,7939 11031,7109 12854,6279 13885,5450"
   id="path216" />
 <path
   fill="rgb(237,28,36)"
   stroke="none"
   d="M 2084,9474 L 2084,9724 2334,9724 2334,9474 2084,9474 Z"
   id="path218" />
 <path
   fill="none"
   stroke="rgb(237,28,36)"
   stroke-linejoin="round"
   d="M 2084,9474 L 2084,9724 2334,9724 2334,9474 2084,9474 Z"
   id="path220" />
 <path
   fill="rgb(237,28,36)"
   stroke="none"
   d="M 9153,7814 L 9153,8064 9403,8064 9403,7814 9153,7814 Z"
   id="path222" />
 <path
   fill="none"
   stroke="rgb(237,28,36)"
   stroke-linejoin="round"
   d="M 9153,7814 L 9153,8064 9403,8064 9403,7814 9153,7814 Z"
   id="path224" />
 <path
   fill="rgb(237,28,36)"
   stroke="none"
   d="M 10906,6984 L 10906,7234 11156,7234 11156,6984 10906,6984 Z"
   id="path226" />
 <path
   fill="none"
   stroke="rgb(237,28,36)"
   stroke-linejoin="round"
   d="M 10906,6984 L 10906,7234 11156,7234 11156,6984 10906,6984 Z"
   id="path228" />
 <path
   fill="rgb(237,28,36)"
   stroke="none"
   d="M 12729,6154 L 12729,6404 12979,6404 12979,6154 12729,6154 Z"
   id="path230" />
 <path
   fill="none"
   stroke="rgb(237,28,36)"
   stroke-linejoin="round"
   d="M 12729,6154 L 12729,6404 12979,6404 12979,6154 12729,6154 Z"
   id="path232" />
 <path
   fill="rgb(237,28,36)"
   stroke="none"
   d="M 13760,5325 L 13760,5575 14010,5575 14010,5325 13760,5325 Z"
   id="path234" />
 <path
   fill="none"
   stroke="rgb(237,28,36)"
   stroke-linejoin="round"
   d="M 13760,5325 L 13760,5575 14010,5575 14010,5325 13760,5325 Z"
   id="path236" />
 <text
   class="TextShape"
   id="text244"><tspan
     class="TextParagraph"
     font-family="Liberation Sans, sans-serif"
     font-size="423px"
     font-weight="400"
     id="tspan242"><tspan
       class="TextPosition"
       x="2090"
       y="10219"
       id="tspan240"><tspan
         fill="rgb(0,0,0)"
         stroke="none"
         id="tspan238">0</tspan></tspan></tspan></text>

 <text
   class="TextShape"
   id="text252"><tspan
     class="TextParagraph"
     font-family="Liberation Sans, sans-serif"
     font-size="423px"
     font-weight="400"
     id="tspan250"><tspan
       class="TextPosition"
       x="5232"
       y="10219"
       id="tspan248"><tspan
         fill="rgb(0,0,0)"
         stroke="none"
         id="tspan246">5</tspan></tspan></tspan></text>

 <text
   class="TextShape"
   id="text260"><tspan
     class="TextParagraph"
     font-family="Liberation Sans, sans-serif"
     font-size="423px"
     font-weight="400"
     id="tspan258"><tspan
       class="TextPosition"
       x="8255"
       y="10219"
       id="tspan256"><tspan
         fill="rgb(0,0,0)"
         stroke="none"
         id="tspan254">10</tspan></tspan></tspan></text>

 <text
   class="TextShape"
   id="text268"><tspan
     class="TextParagraph"
     font-family="Liberation Sans, sans-serif"
     font-size="423px"
     font-weight="400"
     id="tspan266"><tspan
       class="TextPosition"
       x="11398"
       y="10219"
       id="tspan264"><tspan
         fill="rgb(0,0,0)"
         stroke="none"
         id="tspan262">15</tspan></tspan></tspan></text>

 <text
   class="TextShape"
   id="text276"><tspan
     class="TextParagraph"
     font-family="Liberation Sans, sans-serif"
     font-size="423px"
     font-weight="400"
     id="tspan274"><tspan
       class="TextPosition"
       x="14540"
       y="10219"
       id="tspan272"><tspan
         fill="rgb(0,0,0)"
         stroke="none"
         id="tspan270">20</tspan></tspan></tspan></text>

 <text
   class="TextShape"
   id="text284"><tspan
     class="TextParagraph"
     font-family="Liberation Sans, sans-serif"
     font-size="423px"
     font-weight="400"
     id="tspan282"><tspan
       class="TextPosition"
       x="1721"
       y="9745"
       id="tspan280"><tspan
         fill="rgb(0,0,0)"
         stroke="none"
         id="tspan278">0</tspan></tspan></tspan></text>

 <text
   class="TextShape"
   id="text292"><tspan
     class="TextParagraph"
     font-family="Liberation Sans, sans-serif"
     font-size="423px"
     font-weight="400"
     id="tspan290"><tspan
       class="TextPosition"
       x="1139"
       y="8915"
       id="tspan288"><tspan
         fill="rgb(0,0,0)"
         stroke="none"
         id="tspan286">0,01</tspan></tspan></tspan></text>

 <text
   class="TextShape"
   id="text300"><tspan
     class="TextParagraph"
     font-family="Liberation Sans, sans-serif"
     font-size="423px"
     font-weight="400"
     id="tspan298"><tspan
       class="TextPosition"
       x="1139"
       y="8085"
       id="tspan296"><tspan
         fill="rgb(0,0,0)"
         stroke="none"
         id="tspan294">0,02</tspan></tspan></tspan></text>

 <text
   class="TextShape"
   id="text308"><tspan
     class="TextParagraph"
     font-family="Liberation Sans, sans-serif"
     font-size="423px"
     font-weight="400"
     id="tspan306"><tspan
       class="TextPosition"
       x="1139"
       y="7255"
       id="tspan304"><tspan
         fill="rgb(0,0,0)"
         stroke="none"
         id="tspan302">0,03</tspan></tspan></tspan></text>

 <text
   class="TextShape"
   id="text316"><tspan
     class="TextParagraph"
     font-family="Liberation Sans, sans-serif"
     font-size="423px"
     font-weight="400"
     id="tspan314"><tspan
       class="TextPosition"
       x="1139"
       y="6425"
       id="tspan312"><tspan
         fill="rgb(0,0,0)"
         stroke="none"
         id="tspan310">0,04</tspan></tspan></tspan></text>

 <text
   class="TextShape"
   id="text324"><tspan
     class="TextParagraph"
     font-family="Liberation Sans, sans-serif"
     font-size="423px"
     font-weight="400"
     id="tspan322"><tspan
       class="TextPosition"
       x="1139"
       y="5596"
       id="tspan320"><tspan
         fill="rgb(0,0,0)"
         stroke="none"
         id="tspan318">0,05</tspan></tspan></tspan></text>

 <text
   class="TextShape"
   id="text332"><tspan
     class="TextParagraph"
     font-family="Liberation Sans, sans-serif"
     font-size="423px"
     font-weight="400"
     id="tspan330"><tspan
       class="TextPosition"
       x="1139"
       y="4766"
       id="tspan328"><tspan
         fill="rgb(0,0,0)"
         stroke="none"
         id="tspan326">0,06</tspan></tspan></tspan></text>

 <text
   class="TextShape"
   id="text340"><tspan
     class="TextParagraph"
     font-family="Liberation Sans, sans-serif"
     font-size="423px"
     font-weight="400"
     id="tspan338"><tspan
       class="TextPosition"
       x="1139"
       y="3936"
       id="tspan336"><tspan
         fill="rgb(0,0,0)"
         stroke="none"
         id="tspan334">0,07</tspan></tspan></tspan></text>

 <text
   class="TextShape"
   id="text348"><tspan
     class="TextParagraph"
     font-family="Liberation Sans, sans-serif"
     font-size="423px"
     font-weight="400"
     id="tspan346"><tspan
       class="TextPosition"
       x="1139"
       y="3106"
       id="tspan344"><tspan
         fill="rgb(0,0,0)"
         stroke="none"
         id="tspan342">0,08</tspan></tspan></tspan></text>

 <text
   class="TextShape"
   id="text356"><tspan
     class="TextParagraph"
     font-family="Liberation Sans, sans-serif"
     font-size="423px"
     font-weight="400"
     id="tspan354"><tspan
       class="TextPosition"
       x="1139"
       y="2276"
       id="tspan352"><tspan
         fill="rgb(0,0,0)"
         stroke="none"
         id="tspan350">0,09</tspan></tspan></tspan></text>

 <text
   class="TextShape"
   id="text364"><tspan
     class="TextParagraph"
     font-family="Liberation Sans, sans-serif"
     font-size="423px"
     font-weight="400"
     id="tspan362"><tspan
       class="TextPosition"
       x="1377"
       y="1447"
       id="tspan360"><tspan
         fill="rgb(0,0,0)"
         stroke="none"
         id="tspan358">0,1</tspan></tspan></tspan></text>

 <text
   class="TextShape"
   id="text372"><tspan
     class="TextParagraph"
     font-family="Liberation Sans, sans-serif"
     font-size="529px"
     font-weight="700"
     id="tspan370"><tspan
       class="TextPosition"
       x="5694"
       y="999"
       id="tspan368"><tspan
         fill="rgb(0,0,0)"
         stroke="none"
         id="tspan366">Widerstandskräfte</tspan></tspan></tspan></text>

 <g
   id="g485">
  <defs
   id="defs481">
   <pattern
   id="pattern1"
   x="2209"
   y="1301"
   width="4572"
   height="3252"
   patternUnits="userSpaceOnUse">
    <g
   transform="translate(-2209,-1301)"
   id="g478">
     <line
   fill="rgb(178,178,178)"
   stroke="rgb(178,178,178)"
   x1="6709"
   y1="1301"
   x2="6780"
   y2="1372"
   id="line374" />
     <line
   fill="rgb(178,178,178)"
   stroke="rgb(178,178,178)"
   x1="6559"
   y1="1301"
   x2="6780"
   y2="1522"
   id="line376" />
     <line
   fill="rgb(178,178,178)"
   stroke="rgb(178,178,178)"
   x1="6409"
   y1="1301"
   x2="6780"
   y2="1672"
   id="line378" />
     <line
   fill="rgb(178,178,178)"
   stroke="rgb(178,178,178)"
   x1="6259"
   y1="1301"
   x2="6780"
   y2="1822"
   id="line380" />
     <line
   fill="rgb(178,178,178)"
   stroke="rgb(178,178,178)"
   x1="6109"
   y1="1301"
   x2="6780"
   y2="1972"
   id="line382" />
     <line
   fill="rgb(178,178,178)"
   stroke="rgb(178,178,178)"
   x1="5959"
   y1="1301"
   x2="6780"
   y2="2122"
   id="line384" />
     <line
   fill="rgb(178,178,178)"
   stroke="rgb(178,178,178)"
   x1="5809"
   y1="1301"
   x2="6780"
   y2="2272"
   id="line386" />
     <line
   fill="rgb(178,178,178)"
   stroke="rgb(178,178,178)"
   x1="5659"
   y1="1301"
   x2="6780"
   y2="2422"
   id="line388" />
     <line
   fill="rgb(178,178,178)"
   stroke="rgb(178,178,178)"
   x1="5509"
   y1="1301"
   x2="6780"
   y2="2572"
   id="line390" />
     <line
   fill="rgb(178,178,178)"
   stroke="rgb(178,178,178)"
   x1="5359"
   y1="1301"
   x2="6780"
   y2="2722"
   id="line392" />
     <line
   fill="rgb(178,178,178)"
   stroke="rgb(178,178,178)"
   x1="5209"
   y1="1301"
   x2="6780"
   y2="2872"
   id="line394" />
     <line
   fill="rgb(178,178,178)"
   stroke="rgb(178,178,178)"
   x1="5059"
   y1="1301"
   x2="6780"
   y2="3022"
   id="line396" />
     <line
   fill="rgb(178,178,178)"
   stroke="rgb(178,178,178)"
   x1="4909"
   y1="1301"
   x2="6780"
   y2="3172"
   id="line398" />
     <line
   fill="rgb(178,178,178)"
   stroke="rgb(178,178,178)"
   x1="4759"
   y1="1301"
   x2="6780"
   y2="3322"
   id="line400" />
     <line
   fill="rgb(178,178,178)"
   stroke="rgb(178,178,178)"
   x1="4609"
   y1="1301"
   x2="6780"
   y2="3472"
   id="line402" />
     <line
   fill="rgb(178,178,178)"
   stroke="rgb(178,178,178)"
   x1="4459"
   y1="1301"
   x2="6780"
   y2="3622"
   id="line404" />
     <line
   fill="rgb(178,178,178)"
   stroke="rgb(178,178,178)"
   x1="4309"
   y1="1301"
   x2="6780"
   y2="3772"
   id="line406" />
     <line
   fill="rgb(178,178,178)"
   stroke="rgb(178,178,178)"
   x1="4159"
   y1="1301"
   x2="6780"
   y2="3922"
   id="line408" />
     <line
   fill="rgb(178,178,178)"
   stroke="rgb(178,178,178)"
   x1="4009"
   y1="1301"
   x2="6780"
   y2="4072"
   id="line410" />
     <line
   fill="rgb(178,178,178)"
   stroke="rgb(178,178,178)"
   x1="3859"
   y1="1301"
   x2="6780"
   y2="4222"
   id="line412" />
     <line
   fill="rgb(178,178,178)"
   stroke="rgb(178,178,178)"
   x1="3709"
   y1="1301"
   x2="6780"
   y2="4372"
   id="line414" />
     <line
   fill="rgb(178,178,178)"
   stroke="rgb(178,178,178)"
   x1="3559"
   y1="1301"
   x2="6780"
   y2="4522"
   id="line416" />
     <line
   fill="rgb(178,178,178)"
   stroke="rgb(178,178,178)"
   x1="3409"
   y1="1301"
   x2="6660"
   y2="4552"
   id="line418" />
     <line
   fill="rgb(178,178,178)"
   stroke="rgb(178,178,178)"
   x1="3259"
   y1="1301"
   x2="6510"
   y2="4552"
   id="line420" />
     <line
   fill="rgb(178,178,178)"
   stroke="rgb(178,178,178)"
   x1="3109"
   y1="1301"
   x2="6360"
   y2="4552"
   id="line422" />
     <line
   fill="rgb(178,178,178)"
   stroke="rgb(178,178,178)"
   x1="2959"
   y1="1301"
   x2="6210"
   y2="4552"
   id="line424" />
     <line
   fill="rgb(178,178,178)"
   stroke="rgb(178,178,178)"
   x1="2809"
   y1="1301"
   x2="6060"
   y2="4552"
   id="line426" />
     <line
   fill="rgb(178,178,178)"
   stroke="rgb(178,178,178)"
   x1="2659"
   y1="1301"
   x2="5910"
   y2="4552"
   id="line428" />
     <line
   fill="rgb(178,178,178)"
   stroke="rgb(178,178,178)"
   x1="2509"
   y1="1301"
   x2="5760"
   y2="4552"
   id="line430" />
     <line
   fill="rgb(178,178,178)"
   stroke="rgb(178,178,178)"
   x1="2359"
   y1="1301"
   x2="5610"
   y2="4552"
   id="line432" />
     <line
   fill="rgb(178,178,178)"
   stroke="rgb(178,178,178)"
   x1="2209"
   y1="1301"
   x2="5460"
   y2="4552"
   id="line434" />
     <line
   fill="rgb(178,178,178)"
   stroke="rgb(178,178,178)"
   x1="2209"
   y1="1451"
   x2="5310"
   y2="4552"
   id="line436" />
     <line
   fill="rgb(178,178,178)"
   stroke="rgb(178,178,178)"
   x1="2209"
   y1="1601"
   x2="5160"
   y2="4552"
   id="line438" />
     <line
   fill="rgb(178,178,178)"
   stroke="rgb(178,178,178)"
   x1="2209"
   y1="1751"
   x2="5010"
   y2="4552"
   id="line440" />
     <line
   fill="rgb(178,178,178)"
   stroke="rgb(178,178,178)"
   x1="2209"
   y1="1901"
   x2="4860"
   y2="4552"
   id="line442" />
     <line
   fill="rgb(178,178,178)"
   stroke="rgb(178,178,178)"
   x1="2209"
   y1="2051"
   x2="4710"
   y2="4552"
   id="line444" />
     <line
   fill="rgb(178,178,178)"
   stroke="rgb(178,178,178)"
   x1="2209"
   y1="2201"
   x2="4560"
   y2="4552"
   id="line446" />
     <line
   fill="rgb(178,178,178)"
   stroke="rgb(178,178,178)"
   x1="2209"
   y1="2351"
   x2="4410"
   y2="4552"
   id="line448" />
     <line
   fill="rgb(178,178,178)"
   stroke="rgb(178,178,178)"
   x1="2209"
   y1="2501"
   x2="4260"
   y2="4552"
   id="line450" />
     <line
   fill="rgb(178,178,178)"
   stroke="rgb(178,178,178)"
   x1="2209"
   y1="2651"
   x2="4110"
   y2="4552"
   id="line452" />
     <line
   fill="rgb(178,178,178)"
   stroke="rgb(178,178,178)"
   x1="2209"
   y1="2801"
   x2="3960"
   y2="4552"
   id="line454" />
     <line
   fill="rgb(178,178,178)"
   stroke="rgb(178,178,178)"
   x1="2209"
   y1="2951"
   x2="3810"
   y2="4552"
   id="line456" />
     <line
   fill="rgb(178,178,178)"
   stroke="rgb(178,178,178)"
   x1="2209"
   y1="3101"
   x2="3660"
   y2="4552"
   id="line458" />
     <line
   fill="rgb(178,178,178)"
   stroke="rgb(178,178,178)"
   x1="2209"
   y1="3251"
   x2="3510"
   y2="4552"
   id="line460" />
     <line
   fill="rgb(178,178,178)"
   stroke="rgb(178,178,178)"
   x1="2209"
   y1="3401"
   x2="3360"
   y2="4552"
   id="line462" />
     <line
   fill="rgb(178,178,178)"
   stroke="rgb(178,178,178)"
   x1="2209"
   y1="3551"
   x2="3210"
   y2="4552"
   id="line464" />
     <line
   fill="rgb(178,178,178)"
   stroke="rgb(178,178,178)"
   x1="2209"
   y1="3701"
   x2="3060"
   y2="4552"
   id="line466" />
     <line
   fill="rgb(178,178,178)"
   stroke="rgb(178,178,178)"
   x1="2209"
   y1="3851"
   x2="2910"
   y2="4552"
   id="line468" />
     <line
   fill="rgb(178,178,178)"
   stroke="rgb(178,178,178)"
   x1="2209"
   y1="4001"
   x2="2760"
   y2="4552"
   id="line470" />
     <line
   fill="rgb(178,178,178)"
   stroke="rgb(178,178,178)"
   x1="2209"
   y1="4151"
   x2="2610"
   y2="4552"
   id="line472" />
     <line
   fill="rgb(178,178,178)"
   stroke="rgb(178,178,178)"
   x1="2209"
   y1="4301"
   x2="2460"
   y2="4552"
   id="line474" />
     <line
   fill="rgb(178,178,178)"
   stroke="rgb(178,178,178)"
   x1="2209"
   y1="4451"
   x2="2310"
   y2="4552"
   id="line476" />
    </g>
   </pattern>
  </defs>
  <path
   style="fill:url(#pattern1)"
   d="M 4494,4552 L 2209,4552 2209,1301 6780,1301 6780,4552 4494,4552 Z"
   id="path483" />
 </g>
 <path
   fill="none"
   stroke="rgb(0,0,0)"
   stroke-linejoin="round"
   d="M 4494,4552 L 2209,4552 2209,1301 6780,1301 6780,4552 4494,4552 Z"
   id="path487" />
 <path
   fill="none"
   stroke="rgb(237,28,36)"
   stroke-width="80"
   stroke-linejoin="round"
   d="M 2491,1656 L 3291,1656"
   id="path489" />
 <path
   fill="rgb(237,28,36)"
   stroke="none"
   d="M 2743,1508 L 2743,1804 3039,1804 3039,1508 2743,1508 Z"
   id="path491" />
 <path
   fill="none"
   stroke="rgb(237,28,36)"
   stroke-linejoin="round"
   d="M 2743,1508 L 2743,1804 3039,1804 3039,1508 2743,1508 Z"
   id="path493" />
 <path
   fill="none"
   stroke="rgb(0,134,75)"
   stroke-width="80"
   stroke-linejoin="round"
   d="M 2491,2290 L 3291,2290"
   id="path495" />
 <path
   fill="rgb(0,134,75)"
   stroke="none"
   d="M 2743,2290 L 2891,2438 3039,2290 2891,2142 2743,2290 Z"
   id="path497" />
 <path
   fill="none"
   stroke="rgb(0,134,75)"
   stroke-linejoin="round"
   d="M 2743,2290 L 2891,2438 3039,2290 2891,2142 2743,2290 Z"
   id="path499" />
 <path
   fill="none"
   stroke="rgb(250,166,26)"
   stroke-width="80"
   stroke-linejoin="round"
   d="M 2491,2924 L 3291,2924"
   id="path501" />
 <path
   fill="rgb(250,166,26)"
   stroke="none"
   d="M 2743,2776 L 2891,3072 3039,2776 2743,2776 Z"
   id="path503" />
 <path
   fill="none"
   stroke="rgb(250,166,26)"
   stroke-linejoin="round"
   d="M 2743,2776 L 2891,3072 3039,2776 2743,2776 Z"
   id="path505" />
 <path
   fill="none"
   stroke="rgb(255,242,0)"
   stroke-width="80"
   stroke-linejoin="round"
   d="M 2491,3558 L 3291,3558"
   id="path507" />
 <path
   fill="rgb(255,242,0)"
   stroke="none"
   d="M 2743,3706 L 3039,3706 2891,3410 2743,3706 Z"
   id="path509" />
 <path
   fill="none"
   stroke="rgb(255,242,0)"
   stroke-linejoin="round"
   d="M 2743,3706 L 3039,3706 2891,3410 2743,3706 Z"
   id="path511" />
 <path
   fill="none"
   stroke="rgb(0,102,179)"
   stroke-width="80"
   stroke-linejoin="round"
   d="M 2491,4192 L 3291,4192"
   id="path513" />
 <path
   fill="rgb(0,102,179)"
   stroke="none"
   d="M 2743,4044 L 2743,4340 3039,4192 2743,4044 Z"
   id="path515" />
 <path
   fill="none"
   stroke="rgb(0,102,179)"
   stroke-linejoin="round"
   d="M 2743,4044 L 2743,4340 3039,4192 2743,4044 Z"
   id="path517" />
 <text
   class="TextShape"
   id="text525"><tspan
     class="TextParagraph"
     font-family="Liberation Sans, sans-serif"
     font-size="494px"
     font-weight="400"
     id="tspan523"><tspan
       class="TextPosition"
       x="3399"
       y="1828"
       id="tspan521"><tspan
         fill="rgb(0,0,0)"
         stroke="none"
         id="tspan519">Ogive</tspan></tspan></tspan></text>

 <text
   class="TextShape"
   id="text533"><tspan
     class="TextParagraph"
     font-family="Liberation Sans, sans-serif"
     font-size="494px"
     font-weight="400"
     id="tspan531"><tspan
       class="TextPosition"
       x="3399"
       y="2462"
       id="tspan529"><tspan
         fill="rgb(0,0,0)"
         stroke="none"
         id="tspan527">Ellipse</tspan></tspan></tspan></text>

 <text
   class="TextShape"
   id="text541"><tspan
     class="TextParagraph"
     font-family="Liberation Sans, sans-serif"
     font-size="494px"
     font-weight="400"
     id="tspan539"><tspan
       class="TextPosition"
       x="3399"
       y="3096"
       id="tspan537"><tspan
         fill="rgb(0,0,0)"
         stroke="none"
         id="tspan535">Haack</tspan></tspan></tspan></text>

 <text
   class="TextShape"
   id="text549"><tspan
     class="TextParagraph"
     font-family="Liberation Sans, sans-serif"
     font-size="494px"
     font-weight="400"
     id="tspan547"><tspan
       class="TextPosition"
       x="3399"
       y="3730"
       id="tspan545"><tspan
         fill="rgb(0,0,0)"
         stroke="none"
         id="tspan543">Konisch</tspan></tspan></tspan></text>

 <text
   class="TextShape"
   id="text557"><tspan
     class="TextParagraph"
     font-family="Liberation Sans, sans-serif"
     font-size="494px"
     font-weight="400"
     id="tspan555"><tspan
       class="TextPosition"
       x="3399"
       y="4364"
       id="tspan553"><tspan
         fill="rgb(0,0,0)"
         stroke="none"
         id="tspan551">Experimentell</tspan></tspan></tspan></text>

 <text
   class="TextShape"
   id="text565"><tspan
     class="TextParagraph"
     font-family="Liberation Sans, sans-serif"
     font-size="494px"
     font-weight="400"
     id="tspan563"><tspan
       class="TextPosition"
       x="5445"
       y="10893"
       id="tspan561"><tspan
         fill="rgb(0,0,0)"
         stroke="none"
         id="tspan559">Windgeschwindigkeit [m/s]</tspan></tspan></tspan></text>

 <text
   class="TextShape"
   transform="translate(807,8111) rotate(-90) translate(-807,-8111)"
   id="text573"><tspan
     class="TextParagraph"
     font-family="Liberation Sans, sans-serif"
     font-size="494px"
     font-weight="400"
     id="tspan571"><tspan
       class="TextPosition"
       x="807"
       y="8111"
       id="tspan569"><tspan
         fill="rgb(0,0,0)"
         stroke="none"
         id="tspan567">Widerstandskraft Fw [N]</tspan></tspan></tspan></text>

</svg>