<?xml version="1.0" encoding="UTF-8" standalone="no"?>
<svg
   xmlns:dc="http://purl.org/dc/elements/1.1/"
   xmlns:cc="http://creativecommons.org/ns#"
   xmlns:rdf="http://www.w3.org/1999/02/22-rdf-syntax-ns#"
   xmlns:svg="http://www.w3.org/2000/svg"
   xmlns="http://www.w3.org/2000/svg"
   xmlns:sodipodi="http://sodipodi.sourceforge.net/DTD/sodipodi-0.dtd"
   xmlns:inkscape="http://www.inkscape.org/namespaces/inkscape"
   width="160mm"
   height="113mm"
   viewBox="0 0 16000 11300"
   version="1.1"
   stroke-width="28.222"
   stroke-linejoin="round"
   xml:space="preserve"
   id="svg541"
   sodipodi:docname="Cw-Werte.svg"
   inkscape:export-filename="/home/jeremias/Schule/sf452/Jugend Forscht/Bilder/Benni-Ergebnisse2.png"
   inkscape:export-xdpi="300"
   inkscape:export-ydpi="300"
   inkscape:version="0.92.3 (2405546, 2018-03-11)"><metadata
   id="metadata547"><rdf:RDF><cc:Work
       rdf:about=""><dc:format>image/svg+xml</dc:format><dc:type
         rdf:resource="http://purl.org/dc/dcmitype/StillImage" /></cc:Work></rdf:RDF></metadata><defs
   id="defs545" /><sodipodi:namedview
   pagecolor="#ffffff"
   bordercolor="#666666"
   borderopacity="1"
   objecttolerance="10"
   gridtolerance="10"
   guidetolerance="10"
   inkscape:pageopacity="0"
   inkscape:pageshadow="2"
   inkscape:window-width="1920"
   inkscape:window-height="1049"
   id="namedview543"
   showgrid="false"
   inkscape:zoom="1.5629354"
   inkscape:cx="288.85686"
   inkscape:cy="237.19726"
   inkscape:window-x="0"
   inkscape:window-y="0"
   inkscape:window-maximized="1"
   inkscape:current-layer="svg541" />
 <path
   fill="rgb(255,255,255)"
   stroke="none"
   d="M 8007,11300 L 7,11300 7,1 16007,1 16007,11300 8007,11300 Z"
   id="path2" />
 <path
   fill="none"
   stroke="rgb(179,179,179)"
   stroke-linejoin="round"
   d="M 8804,9595 L 2206,9595 2206,1300 15402,1300 15402,9595 8804,9595 Z"
   id="path4" />
 <path
   fill="none"
   stroke="rgb(179,179,179)"
   stroke-linejoin="round"
   d="M 15402,9594 L 2206,9594"
   id="path6" />
 <path
   fill="none"
   stroke="rgb(179,179,179)"
   stroke-linejoin="round"
   d="M 15402,8409 L 2206,8409"
   id="path8" />
 <path
   fill="none"
   stroke="rgb(179,179,179)"
   stroke-linejoin="round"
   d="M 15402,7224 L 2206,7224"
   id="path10" />
 <path
   fill="none"
   stroke="rgb(179,179,179)"
   stroke-linejoin="round"
   d="M 15402,6039 L 2206,6039"
   id="path12" />
 <path
   fill="none"
   stroke="rgb(179,179,179)"
   stroke-linejoin="round"
   d="M 15402,4853 L 2206,4853"
   id="path14" />
 <path
   fill="none"
   stroke="rgb(179,179,179)"
   stroke-linejoin="round"
   d="M 15402,3668 L 2206,3668"
   id="path16" />
 <path
   fill="none"
   stroke="rgb(179,179,179)"
   stroke-linejoin="round"
   d="M 15402,2484 L 2206,2484"
   id="path18" />
 <path
   fill="none"
   stroke="rgb(179,179,179)"
   stroke-linejoin="round"
   d="M 15402,1299 L 2206,1299"
   id="path20" />
 <path
   fill="none"
   stroke="rgb(179,179,179)"
   stroke-linejoin="round"
   d="M 2206,9744 L 2206,9594"
   id="path22" />
 <path
   fill="none"
   stroke="rgb(179,179,179)"
   stroke-linejoin="round"
   d="M 2206,9744 L 2206,9594"
   id="path24" />
 <path
   fill="none"
   stroke="rgb(179,179,179)"
   stroke-linejoin="round"
   d="M 4236,9744 L 4236,9594"
   id="path26" />
 <path
   fill="none"
   stroke="rgb(179,179,179)"
   stroke-linejoin="round"
   d="M 4236,9744 L 4236,9594"
   id="path28" />
 <path
   fill="none"
   stroke="rgb(179,179,179)"
   stroke-linejoin="round"
   d="M 6266,9744 L 6266,9594"
   id="path30" />
 <path
   fill="none"
   stroke="rgb(179,179,179)"
   stroke-linejoin="round"
   d="M 6266,9744 L 6266,9594"
   id="path32" />
 <path
   fill="none"
   stroke="rgb(179,179,179)"
   stroke-linejoin="round"
   d="M 8295,9744 L 8295,9594"
   id="path34" />
 <path
   fill="none"
   stroke="rgb(179,179,179)"
   stroke-linejoin="round"
   d="M 8295,9744 L 8295,9594"
   id="path36" />
 <path
   fill="none"
   stroke="rgb(179,179,179)"
   stroke-linejoin="round"
   d="M 10326,9744 L 10326,9594"
   id="path38" />
 <path
   fill="none"
   stroke="rgb(179,179,179)"
   stroke-linejoin="round"
   d="M 10326,9744 L 10326,9594"
   id="path40" />
 <path
   fill="none"
   stroke="rgb(179,179,179)"
   stroke-linejoin="round"
   d="M 12356,9744 L 12356,9594"
   id="path42" />
 <path
   fill="none"
   stroke="rgb(179,179,179)"
   stroke-linejoin="round"
   d="M 12356,9744 L 12356,9594"
   id="path44" />
 <path
   fill="none"
   stroke="rgb(179,179,179)"
   stroke-linejoin="round"
   d="M 14386,9744 L 14386,9594"
   id="path46" />
 <path
   fill="none"
   stroke="rgb(179,179,179)"
   stroke-linejoin="round"
   d="M 14386,9744 L 14386,9594"
   id="path48" />
 <path
   fill="none"
   stroke="rgb(179,179,179)"
   stroke-linejoin="round"
   d="M 2206,9594 L 15402,9594"
   id="path50" />
 <path
   fill="none"
   stroke="rgb(179,179,179)"
   stroke-linejoin="round"
   d="M 2056,9594 L 2206,9594"
   id="path52" />
 <path
   fill="none"
   stroke="rgb(179,179,179)"
   stroke-linejoin="round"
   d="M 2056,9594 L 2206,9594"
   id="path54" />
 <path
   fill="none"
   stroke="rgb(179,179,179)"
   stroke-linejoin="round"
   d="M 2056,8409 L 2206,8409"
   id="path56" />
 <path
   fill="none"
   stroke="rgb(179,179,179)"
   stroke-linejoin="round"
   d="M 2056,8409 L 2206,8409"
   id="path58" />
 <path
   fill="none"
   stroke="rgb(179,179,179)"
   stroke-linejoin="round"
   d="M 2056,7224 L 2206,7224"
   id="path60" />
 <path
   fill="none"
   stroke="rgb(179,179,179)"
   stroke-linejoin="round"
   d="M 2056,7224 L 2206,7224"
   id="path62" />
 <path
   fill="none"
   stroke="rgb(179,179,179)"
   stroke-linejoin="round"
   d="M 2056,6039 L 2206,6039"
   id="path64" />
 <path
   fill="none"
   stroke="rgb(179,179,179)"
   stroke-linejoin="round"
   d="M 2056,6039 L 2206,6039"
   id="path66" />
 <path
   fill="none"
   stroke="rgb(179,179,179)"
   stroke-linejoin="round"
   d="M 2056,4853 L 2206,4853"
   id="path68" />
 <path
   fill="none"
   stroke="rgb(179,179,179)"
   stroke-linejoin="round"
   d="M 2056,4853 L 2206,4853"
   id="path70" />
 <path
   fill="none"
   stroke="rgb(179,179,179)"
   stroke-linejoin="round"
   d="M 2056,3668 L 2206,3668"
   id="path72" />
 <path
   fill="none"
   stroke="rgb(179,179,179)"
   stroke-linejoin="round"
   d="M 2056,3668 L 2206,3668"
   id="path74" />
 <path
   fill="none"
   stroke="rgb(179,179,179)"
   stroke-linejoin="round"
   d="M 2056,2484 L 2206,2484"
   id="path76" />
 <path
   fill="none"
   stroke="rgb(179,179,179)"
   stroke-linejoin="round"
   d="M 2056,2484 L 2206,2484"
   id="path78" />
 <path
   fill="none"
   stroke="rgb(179,179,179)"
   stroke-linejoin="round"
   d="M 2056,1299 L 2206,1299"
   id="path80" />
 <path
   fill="none"
   stroke="rgb(179,179,179)"
   stroke-linejoin="round"
   d="M 2056,1299 L 2206,1299"
   id="path82" />
 <path
   fill="none"
   stroke="rgb(179,179,179)"
   stroke-linejoin="round"
   d="M 2206,9594 L 2206,1299"
   id="path84" />
 <path
   fill="none"
   stroke="rgb(0,102,179)"
   stroke-width="80"
   stroke-linejoin="round"
   d="M 2967,2471 L 5474,3095 7383,3237 9077,3343 10468,3313 11788,3317 13138,3401 14579,3573"
   id="path86" />
 <path
   fill="rgb(0,102,179)"
   stroke="none"
   d="M 2842,2346 L 2842,2596 3092,2471 2842,2346 Z"
   id="path88" />
 <path
   fill="none"
   stroke="rgb(0,102,179)"
   stroke-linejoin="round"
   d="M 2842,2346 L 2842,2596 3092,2471 2842,2346 Z"
   id="path90" />
 <path
   fill="rgb(0,102,179)"
   stroke="none"
   d="M 5349,2970 L 5349,3220 5599,3095 5349,2970 Z"
   id="path92" />
 <path
   fill="none"
   stroke="rgb(0,102,179)"
   stroke-linejoin="round"
   d="M 5349,2970 L 5349,3220 5599,3095 5349,2970 Z"
   id="path94" />
 <path
   fill="rgb(0,102,179)"
   stroke="none"
   d="M 7258,3112 L 7258,3362 7508,3237 7258,3112 Z"
   id="path96" />
 <path
   fill="none"
   stroke="rgb(0,102,179)"
   stroke-linejoin="round"
   d="M 7258,3112 L 7258,3362 7508,3237 7258,3112 Z"
   id="path98" />
 <path
   fill="rgb(0,102,179)"
   stroke="none"
   d="M 8952,3218 L 8952,3468 9202,3343 8952,3218 Z"
   id="path100" />
 <path
   fill="none"
   stroke="rgb(0,102,179)"
   stroke-linejoin="round"
   d="M 8952,3218 L 8952,3468 9202,3343 8952,3218 Z"
   id="path102" />
 <path
   fill="rgb(0,102,179)"
   stroke="none"
   d="M 10343,3188 L 10343,3438 10593,3313 10343,3188 Z"
   id="path104" />
 <path
   fill="none"
   stroke="rgb(0,102,179)"
   stroke-linejoin="round"
   d="M 10343,3188 L 10343,3438 10593,3313 10343,3188 Z"
   id="path106" />
 <path
   fill="rgb(0,102,179)"
   stroke="none"
   d="M 11663,3192 L 11663,3442 11913,3317 11663,3192 Z"
   id="path108" />
 <path
   fill="none"
   stroke="rgb(0,102,179)"
   stroke-linejoin="round"
   d="M 11663,3192 L 11663,3442 11913,3317 11663,3192 Z"
   id="path110" />
 <path
   fill="rgb(0,102,179)"
   stroke="none"
   d="M 13013,3276 L 13013,3526 13263,3401 13013,3276 Z"
   id="path112" />
 <path
   fill="none"
   stroke="rgb(0,102,179)"
   stroke-linejoin="round"
   d="M 13013,3276 L 13013,3526 13263,3401 13013,3276 Z"
   id="path114" />
 <path
   fill="rgb(0,102,179)"
   stroke="none"
   d="M 14454,3448 L 14454,3698 14704,3573 14454,3448 Z"
   id="path116" />
 <path
   fill="none"
   stroke="rgb(0,102,179)"
   stroke-linejoin="round"
   d="M 14454,3448 L 14454,3698 14704,3573 14454,3448 Z"
   id="path118" />
 <path
   fill="none"
   stroke="rgb(255,242,0)"
   stroke-width="80"
   stroke-linejoin="round"
   d="M 5312,5135 L 6977,4521 9717,4994 11270,4837 12600,4676 14133,4700"
   id="path120" />
 <path
   fill="rgb(255,242,0)"
   stroke="none"
   d="M 5187,5260 L 5437,5260 5312,5010 5187,5260 Z"
   id="path122" />
 <path
   fill="none"
   stroke="rgb(255,242,0)"
   stroke-linejoin="round"
   d="M 5187,5260 L 5437,5260 5312,5010 5187,5260 Z"
   id="path124" />
 <path
   fill="rgb(255,242,0)"
   stroke="none"
   d="M 6852,4646 L 7102,4646 6977,4396 6852,4646 Z"
   id="path126" />
 <path
   fill="none"
   stroke="rgb(255,242,0)"
   stroke-linejoin="round"
   d="M 6852,4646 L 7102,4646 6977,4396 6852,4646 Z"
   id="path128" />
 <path
   fill="rgb(255,242,0)"
   stroke="none"
   d="M 9592,5119 L 9842,5119 9717,4869 9592,5119 Z"
   id="path130" />
 <path
   fill="none"
   stroke="rgb(255,242,0)"
   stroke-linejoin="round"
   d="M 9592,5119 L 9842,5119 9717,4869 9592,5119 Z"
   id="path132" />
 <path
   fill="rgb(255,242,0)"
   stroke="none"
   d="M 11145,4962 L 11395,4962 11270,4712 11145,4962 Z"
   id="path134" />
 <path
   fill="none"
   stroke="rgb(255,242,0)"
   stroke-linejoin="round"
   d="M 11145,4962 L 11395,4962 11270,4712 11145,4962 Z"
   id="path136" />
 <path
   fill="rgb(255,242,0)"
   stroke="none"
   d="M 12475,4801 L 12725,4801 12600,4551 12475,4801 Z"
   id="path138" />
 <path
   fill="none"
   stroke="rgb(255,242,0)"
   stroke-linejoin="round"
   d="M 12475,4801 L 12725,4801 12600,4551 12475,4801 Z"
   id="path140" />
 <path
   fill="rgb(255,242,0)"
   stroke="none"
   d="M 14008,4825 L 14258,4825 14133,4575 14008,4825 Z"
   id="path142" />
 <path
   fill="none"
   stroke="rgb(255,242,0)"
   stroke-linejoin="round"
   d="M 14008,4825 L 14258,4825 14133,4575 14008,4825 Z"
   id="path144" />
 <path
   fill="none"
   stroke="rgb(250,166,26)"
   stroke-width="80"
   stroke-linejoin="round"
   d="M 4530,4443 L 7667,5024 10519,5432 12051,5242 14173,5416"
   id="path146" />
 <path
   fill="rgb(250,166,26)"
   stroke="none"
   d="M 4405,4318 L 4530,4568 4655,4318 4405,4318 Z"
   id="path148" />
 <path
   fill="none"
   stroke="rgb(250,166,26)"
   stroke-linejoin="round"
   d="M 4405,4318 L 4530,4568 4655,4318 4405,4318 Z"
   id="path150" />
 <path
   fill="rgb(250,166,26)"
   stroke="none"
   d="M 7542,4899 L 7667,5149 7792,4899 7542,4899 Z"
   id="path152" />
 <path
   fill="none"
   stroke="rgb(250,166,26)"
   stroke-linejoin="round"
   d="M 7542,4899 L 7667,5149 7792,4899 7542,4899 Z"
   id="path154" />
 <path
   fill="rgb(250,166,26)"
   stroke="none"
   d="M 10394,5307 L 10519,5557 10644,5307 10394,5307 Z"
   id="path156" />
 <path
   fill="none"
   stroke="rgb(250,166,26)"
   stroke-linejoin="round"
   d="M 10394,5307 L 10519,5557 10644,5307 10394,5307 Z"
   id="path158" />
 <path
   fill="rgb(250,166,26)"
   stroke="none"
   d="M 11926,5117 L 12051,5367 12176,5117 11926,5117 Z"
   id="path160" />
 <path
   fill="none"
   stroke="rgb(250,166,26)"
   stroke-linejoin="round"
   d="M 11926,5117 L 12051,5367 12176,5117 11926,5117 Z"
   id="path162" />
 <path
   fill="rgb(250,166,26)"
   stroke="none"
   d="M 14048,5291 L 14173,5541 14298,5291 14048,5291 Z"
   id="path164" />
 <path
   fill="none"
   stroke="rgb(250,166,26)"
   stroke-linejoin="round"
   d="M 14048,5291 L 14173,5541 14298,5291 14048,5291 Z"
   id="path166" />
 <path
   fill="none"
   stroke="rgb(0,134,75)"
   stroke-width="80"
   stroke-linejoin="round"
   d="M 4256,4161 L 7880,5164 10427,5386 12935,5640 14407,5512"
   id="path168" />
 <path
   fill="rgb(0,134,75)"
   stroke="none"
   d="M 4131,4161 L 4256,4286 4381,4161 4256,4036 4131,4161 Z"
   id="path170" />
 <path
   fill="none"
   stroke="rgb(0,134,75)"
   stroke-linejoin="round"
   d="M 4131,4161 L 4256,4286 4381,4161 4256,4036 4131,4161 Z"
   id="path172" />
 <path
   fill="rgb(0,134,75)"
   stroke="none"
   d="M 7755,5164 L 7880,5289 8005,5164 7880,5039 7755,5164 Z"
   id="path174" />
 <path
   fill="none"
   stroke="rgb(0,134,75)"
   stroke-linejoin="round"
   d="M 7755,5164 L 7880,5289 8005,5164 7880,5039 7755,5164 Z"
   id="path176" />
 <path
   fill="rgb(0,134,75)"
   stroke="none"
   d="M 10302,5386 L 10427,5511 10552,5386 10427,5261 10302,5386 Z"
   id="path178" />
 <path
   fill="none"
   stroke="rgb(0,134,75)"
   stroke-linejoin="round"
   d="M 10302,5386 L 10427,5511 10552,5386 10427,5261 10302,5386 Z"
   id="path180" />
 <path
   fill="rgb(0,134,75)"
   stroke="none"
   d="M 12810,5640 L 12935,5765 13060,5640 12935,5515 12810,5640 Z"
   id="path182" />
 <path
   fill="none"
   stroke="rgb(0,134,75)"
   stroke-linejoin="round"
   d="M 12810,5640 L 12935,5765 13060,5640 12935,5515 12810,5640 Z"
   id="path184" />
 <path
   fill="rgb(0,134,75)"
   stroke="none"
   d="M 14282,5512 L 14407,5637 14532,5512 14407,5387 14282,5512 Z"
   id="path186" />
 <path
   fill="none"
   stroke="rgb(0,134,75)"
   stroke-linejoin="round"
   d="M 14282,5512 L 14407,5637 14532,5512 14407,5387 14282,5512 Z"
   id="path188" />
 <path
   fill="none"
   stroke="rgb(237,28,36)"
   stroke-width="80"
   stroke-linejoin="round"
   d="M 5505,5284 L 8336,5444 11280,5793 12945,5644"
   id="path190" />
 <path
   fill="rgb(237,28,36)"
   stroke="none"
   d="M 5380,5159 L 5380,5409 5630,5409 5630,5159 5380,5159 Z"
   id="path192" />
 <path
   fill="none"
   stroke="rgb(237,28,36)"
   stroke-linejoin="round"
   d="M 5380,5159 L 5380,5409 5630,5409 5630,5159 5380,5159 Z"
   id="path194" />
 <path
   fill="rgb(237,28,36)"
   stroke="none"
   d="M 8211,5319 L 8211,5569 8461,5569 8461,5319 8211,5319 Z"
   id="path196" />
 <path
   fill="none"
   stroke="rgb(237,28,36)"
   stroke-linejoin="round"
   d="M 8211,5319 L 8211,5569 8461,5569 8461,5319 8211,5319 Z"
   id="path198" />
 <path
   fill="rgb(237,28,36)"
   stroke="none"
   d="M 11155,5668 L 11155,5918 11405,5918 11405,5668 11155,5668 Z"
   id="path200" />
 <path
   fill="none"
   stroke="rgb(237,28,36)"
   stroke-linejoin="round"
   d="M 11155,5668 L 11155,5918 11405,5918 11405,5668 11155,5668 Z"
   id="path202" />
 <path
   fill="rgb(237,28,36)"
   stroke="none"
   d="M 12820,5519 L 12820,5769 13070,5769 13070,5519 12820,5519 Z"
   id="path204" />
 <path
   fill="none"
   stroke="rgb(237,28,36)"
   stroke-linejoin="round"
   d="M 12820,5519 L 12820,5769 13070,5769 13070,5519 12820,5519 Z"
   id="path206" />
 <text
   class="TextShape"
   id="text214"><tspan
     class="TextParagraph"
     font-family="Liberation Sans, sans-serif"
     font-size="423px"
     font-weight="400"
     id="tspan212"><tspan
       class="TextPosition"
       x="2087"
       y="10214"
       id="tspan210"><tspan
         fill="rgb(0,0,0)"
         stroke="none"
         id="tspan208">8</tspan></tspan></tspan></text>


 <text
   class="TextShape"
   id="text222"><tspan
     class="TextParagraph"
     font-family="Liberation Sans, sans-serif"
     font-size="423px"
     font-weight="400"
     id="tspan220"><tspan
       class="TextPosition"
       x="3998"
       y="10214"
       id="tspan218"><tspan
         fill="rgb(0,0,0)"
         stroke="none"
         id="tspan216">10</tspan></tspan></tspan></text>


 <text
   class="TextShape"
   id="text230"><tspan
     class="TextParagraph"
     font-family="Liberation Sans, sans-serif"
     font-size="423px"
     font-weight="400"
     id="tspan228"><tspan
       class="TextPosition"
       x="6028"
       y="10214"
       id="tspan226"><tspan
         fill="rgb(0,0,0)"
         stroke="none"
         id="tspan224">12</tspan></tspan></tspan></text>


 <text
   class="TextShape"
   id="text238"><tspan
     class="TextParagraph"
     font-family="Liberation Sans, sans-serif"
     font-size="423px"
     font-weight="400"
     id="tspan236"><tspan
       class="TextPosition"
       x="8058"
       y="10214"
       id="tspan234"><tspan
         fill="rgb(0,0,0)"
         stroke="none"
         id="tspan232">14</tspan></tspan></tspan></text>


 <text
   class="TextShape"
   id="text246"><tspan
     class="TextParagraph"
     font-family="Liberation Sans, sans-serif"
     font-size="423px"
     font-weight="400"
     id="tspan244"><tspan
       class="TextPosition"
       x="10089"
       y="10214"
       id="tspan242"><tspan
         fill="rgb(0,0,0)"
         stroke="none"
         id="tspan240">16</tspan></tspan></tspan></text>


 <text
   class="TextShape"
   id="text254"><tspan
     class="TextParagraph"
     font-family="Liberation Sans, sans-serif"
     font-size="423px"
     font-weight="400"
     id="tspan252"><tspan
       class="TextPosition"
       x="12119"
       y="10214"
       id="tspan250"><tspan
         fill="rgb(0,0,0)"
         stroke="none"
         id="tspan248">18</tspan></tspan></tspan></text>


 <text
   class="TextShape"
   id="text262"><tspan
     class="TextParagraph"
     font-family="Liberation Sans, sans-serif"
     font-size="423px"
     font-weight="400"
     id="tspan260"><tspan
       class="TextPosition"
       x="14149"
       y="10214"
       id="tspan258"><tspan
         fill="rgb(0,0,0)"
         stroke="none"
         id="tspan256">20</tspan></tspan></tspan></text>


 <text
   class="TextShape"
   id="text270"><tspan
     class="TextParagraph"
     font-family="Liberation Sans, sans-serif"
     font-size="423px"
     font-weight="400"
     id="tspan268"><tspan
       class="TextPosition"
       x="1718"
       y="9740"
       id="tspan266"><tspan
         fill="rgb(0,0,0)"
         stroke="none"
         id="tspan264">0</tspan></tspan></tspan></text>


 <text
   class="TextShape"
   id="text278"><tspan
     class="TextParagraph"
     font-family="Liberation Sans, sans-serif"
     font-size="423px"
     font-weight="400"
     id="tspan276"><tspan
       class="TextPosition"
       x="1136"
       y="8554"
       id="tspan274"><tspan
         fill="rgb(0,0,0)"
         stroke="none"
         id="tspan272">0,05</tspan></tspan></tspan></text>


 <text
   class="TextShape"
   id="text286"><tspan
     class="TextParagraph"
     font-family="Liberation Sans, sans-serif"
     font-size="423px"
     font-weight="400"
     id="tspan284"><tspan
       class="TextPosition"
       x="1374"
       y="7369"
       id="tspan282"><tspan
         fill="rgb(0,0,0)"
         stroke="none"
         id="tspan280">0,1</tspan></tspan></tspan></text>


 <text
   class="TextShape"
   id="text294"><tspan
     class="TextParagraph"
     font-family="Liberation Sans, sans-serif"
     font-size="423px"
     font-weight="400"
     id="tspan292"><tspan
       class="TextPosition"
       x="1136"
       y="6184"
       id="tspan290"><tspan
         fill="rgb(0,0,0)"
         stroke="none"
         id="tspan288">0,15</tspan></tspan></tspan></text>


 <text
   class="TextShape"
   id="text302"><tspan
     class="TextParagraph"
     font-family="Liberation Sans, sans-serif"
     font-size="423px"
     font-weight="400"
     id="tspan300"><tspan
       class="TextPosition"
       x="1374"
       y="4999"
       id="tspan298"><tspan
         fill="rgb(0,0,0)"
         stroke="none"
         id="tspan296">0,2</tspan></tspan></tspan></text>


 <text
   class="TextShape"
   id="text310"><tspan
     class="TextParagraph"
     font-family="Liberation Sans, sans-serif"
     font-size="423px"
     font-weight="400"
     id="tspan308"><tspan
       class="TextPosition"
       x="1136"
       y="3814"
       id="tspan306"><tspan
         fill="rgb(0,0,0)"
         stroke="none"
         id="tspan304">0,25</tspan></tspan></tspan></text>


 <text
   class="TextShape"
   id="text318"><tspan
     class="TextParagraph"
     font-family="Liberation Sans, sans-serif"
     font-size="423px"
     font-weight="400"
     id="tspan316"><tspan
       class="TextPosition"
       x="1374"
       y="2629"
       id="tspan314"><tspan
         fill="rgb(0,0,0)"
         stroke="none"
         id="tspan312">0,3</tspan></tspan></tspan></text>


 <text
   class="TextShape"
   id="text326"><tspan
     class="TextParagraph"
     font-family="Liberation Sans, sans-serif"
     font-size="423px"
     font-weight="400"
     id="tspan324"><tspan
       class="TextPosition"
       x="1136"
       y="1444"
       id="tspan322"><tspan
         fill="rgb(0,0,0)"
         stroke="none"
         id="tspan320">0,35</tspan></tspan></tspan></text>


 <text
   class="TextShape"
   id="text334"><tspan
     class="TextParagraph"
     font-family="Liberation Sans, sans-serif"
     font-size="494px"
     font-weight="700"
     id="tspan332"><tspan
       class="TextPosition"
       x="6843"
       y="960"
       id="tspan330"><tspan
         fill="rgb(0,0,0)"
         stroke="none"
         id="tspan328">Cw-Werte</tspan></tspan></tspan></text>


 <g
   id="g451">
  <defs
   id="defs447">
   <pattern
   id="pattern1"
   x="2206"
   y="6060"
   width="4560"
   height="3535"
   patternUnits="userSpaceOnUse">
    <g
   transform="translate(-2206,-6060)"
   id="g444">
     <line
   fill="rgb(178,178,178)"
   stroke="rgb(178,178,178)"
   x1="6706"
   y1="6060"
   x2="6765"
   y2="6119"
   id="line336" />
     <line
   fill="rgb(178,178,178)"
   stroke="rgb(178,178,178)"
   x1="6556"
   y1="6060"
   x2="6765"
   y2="6269"
   id="line338" />
     <line
   fill="rgb(178,178,178)"
   stroke="rgb(178,178,178)"
   x1="6406"
   y1="6060"
   x2="6765"
   y2="6419"
   id="line340" />
     <line
   fill="rgb(178,178,178)"
   stroke="rgb(178,178,178)"
   x1="6256"
   y1="6060"
   x2="6765"
   y2="6569"
   id="line342" />
     <line
   fill="rgb(178,178,178)"
   stroke="rgb(178,178,178)"
   x1="6106"
   y1="6060"
   x2="6765"
   y2="6719"
   id="line344" />
     <line
   fill="rgb(178,178,178)"
   stroke="rgb(178,178,178)"
   x1="5956"
   y1="6060"
   x2="6765"
   y2="6869"
   id="line346" />
     <line
   fill="rgb(178,178,178)"
   stroke="rgb(178,178,178)"
   x1="5806"
   y1="6060"
   x2="6765"
   y2="7019"
   id="line348" />
     <line
   fill="rgb(178,178,178)"
   stroke="rgb(178,178,178)"
   x1="5656"
   y1="6060"
   x2="6765"
   y2="7169"
   id="line350" />
     <line
   fill="rgb(178,178,178)"
   stroke="rgb(178,178,178)"
   x1="5506"
   y1="6060"
   x2="6765"
   y2="7319"
   id="line352" />
     <line
   fill="rgb(178,178,178)"
   stroke="rgb(178,178,178)"
   x1="5356"
   y1="6060"
   x2="6765"
   y2="7469"
   id="line354" />
     <line
   fill="rgb(178,178,178)"
   stroke="rgb(178,178,178)"
   x1="5206"
   y1="6060"
   x2="6765"
   y2="7619"
   id="line356" />
     <line
   fill="rgb(178,178,178)"
   stroke="rgb(178,178,178)"
   x1="5056"
   y1="6060"
   x2="6765"
   y2="7769"
   id="line358" />
     <line
   fill="rgb(178,178,178)"
   stroke="rgb(178,178,178)"
   x1="4906"
   y1="6060"
   x2="6765"
   y2="7919"
   id="line360" />
     <line
   fill="rgb(178,178,178)"
   stroke="rgb(178,178,178)"
   x1="4756"
   y1="6060"
   x2="6765"
   y2="8069"
   id="line362" />
     <line
   fill="rgb(178,178,178)"
   stroke="rgb(178,178,178)"
   x1="4606"
   y1="6060"
   x2="6765"
   y2="8219"
   id="line364" />
     <line
   fill="rgb(178,178,178)"
   stroke="rgb(178,178,178)"
   x1="4456"
   y1="6060"
   x2="6765"
   y2="8369"
   id="line366" />
     <line
   fill="rgb(178,178,178)"
   stroke="rgb(178,178,178)"
   x1="4306"
   y1="6060"
   x2="6765"
   y2="8519"
   id="line368" />
     <line
   fill="rgb(178,178,178)"
   stroke="rgb(178,178,178)"
   x1="4156"
   y1="6060"
   x2="6765"
   y2="8669"
   id="line370" />
     <line
   fill="rgb(178,178,178)"
   stroke="rgb(178,178,178)"
   x1="4006"
   y1="6060"
   x2="6765"
   y2="8819"
   id="line372" />
     <line
   fill="rgb(178,178,178)"
   stroke="rgb(178,178,178)"
   x1="3856"
   y1="6060"
   x2="6765"
   y2="8969"
   id="line374" />
     <line
   fill="rgb(178,178,178)"
   stroke="rgb(178,178,178)"
   x1="3706"
   y1="6060"
   x2="6765"
   y2="9119"
   id="line376" />
     <line
   fill="rgb(178,178,178)"
   stroke="rgb(178,178,178)"
   x1="3556"
   y1="6060"
   x2="6765"
   y2="9269"
   id="line378" />
     <line
   fill="rgb(178,178,178)"
   stroke="rgb(178,178,178)"
   x1="3406"
   y1="6060"
   x2="6765"
   y2="9419"
   id="line380" />
     <line
   fill="rgb(178,178,178)"
   stroke="rgb(178,178,178)"
   x1="3256"
   y1="6060"
   x2="6765"
   y2="9569"
   id="line382" />
     <line
   fill="rgb(178,178,178)"
   stroke="rgb(178,178,178)"
   x1="3106"
   y1="6060"
   x2="6640"
   y2="9594"
   id="line384" />
     <line
   fill="rgb(178,178,178)"
   stroke="rgb(178,178,178)"
   x1="2956"
   y1="6060"
   x2="6490"
   y2="9594"
   id="line386" />
     <line
   fill="rgb(178,178,178)"
   stroke="rgb(178,178,178)"
   x1="2806"
   y1="6060"
   x2="6340"
   y2="9594"
   id="line388" />
     <line
   fill="rgb(178,178,178)"
   stroke="rgb(178,178,178)"
   x1="2656"
   y1="6060"
   x2="6190"
   y2="9594"
   id="line390" />
     <line
   fill="rgb(178,178,178)"
   stroke="rgb(178,178,178)"
   x1="2506"
   y1="6060"
   x2="6040"
   y2="9594"
   id="line392" />
     <line
   fill="rgb(178,178,178)"
   stroke="rgb(178,178,178)"
   x1="2356"
   y1="6060"
   x2="5890"
   y2="9594"
   id="line394" />
     <line
   fill="rgb(178,178,178)"
   stroke="rgb(178,178,178)"
   x1="2206"
   y1="6060"
   x2="5740"
   y2="9594"
   id="line396" />
     <line
   fill="rgb(178,178,178)"
   stroke="rgb(178,178,178)"
   x1="2206"
   y1="6210"
   x2="5590"
   y2="9594"
   id="line398" />
     <line
   fill="rgb(178,178,178)"
   stroke="rgb(178,178,178)"
   x1="2206"
   y1="6360"
   x2="5440"
   y2="9594"
   id="line400" />
     <line
   fill="rgb(178,178,178)"
   stroke="rgb(178,178,178)"
   x1="2206"
   y1="6510"
   x2="5290"
   y2="9594"
   id="line402" />
     <line
   fill="rgb(178,178,178)"
   stroke="rgb(178,178,178)"
   x1="2206"
   y1="6660"
   x2="5140"
   y2="9594"
   id="line404" />
     <line
   fill="rgb(178,178,178)"
   stroke="rgb(178,178,178)"
   x1="2206"
   y1="6810"
   x2="4990"
   y2="9594"
   id="line406" />
     <line
   fill="rgb(178,178,178)"
   stroke="rgb(178,178,178)"
   x1="2206"
   y1="6960"
   x2="4840"
   y2="9594"
   id="line408" />
     <line
   fill="rgb(178,178,178)"
   stroke="rgb(178,178,178)"
   x1="2206"
   y1="7110"
   x2="4690"
   y2="9594"
   id="line410" />
     <line
   fill="rgb(178,178,178)"
   stroke="rgb(178,178,178)"
   x1="2206"
   y1="7260"
   x2="4540"
   y2="9594"
   id="line412" />
     <line
   fill="rgb(178,178,178)"
   stroke="rgb(178,178,178)"
   x1="2206"
   y1="7410"
   x2="4390"
   y2="9594"
   id="line414" />
     <line
   fill="rgb(178,178,178)"
   stroke="rgb(178,178,178)"
   x1="2206"
   y1="7560"
   x2="4240"
   y2="9594"
   id="line416" />
     <line
   fill="rgb(178,178,178)"
   stroke="rgb(178,178,178)"
   x1="2206"
   y1="7710"
   x2="4090"
   y2="9594"
   id="line418" />
     <line
   fill="rgb(178,178,178)"
   stroke="rgb(178,178,178)"
   x1="2206"
   y1="7860"
   x2="3940"
   y2="9594"
   id="line420" />
     <line
   fill="rgb(178,178,178)"
   stroke="rgb(178,178,178)"
   x1="2206"
   y1="8010"
   x2="3790"
   y2="9594"
   id="line422" />
     <line
   fill="rgb(178,178,178)"
   stroke="rgb(178,178,178)"
   x1="2206"
   y1="8160"
   x2="3640"
   y2="9594"
   id="line424" />
     <line
   fill="rgb(178,178,178)"
   stroke="rgb(178,178,178)"
   x1="2206"
   y1="8310"
   x2="3490"
   y2="9594"
   id="line426" />
     <line
   fill="rgb(178,178,178)"
   stroke="rgb(178,178,178)"
   x1="2206"
   y1="8460"
   x2="3340"
   y2="9594"
   id="line428" />
     <line
   fill="rgb(178,178,178)"
   stroke="rgb(178,178,178)"
   x1="2206"
   y1="8610"
   x2="3190"
   y2="9594"
   id="line430" />
     <line
   fill="rgb(178,178,178)"
   stroke="rgb(178,178,178)"
   x1="2206"
   y1="8760"
   x2="3040"
   y2="9594"
   id="line432" />
     <line
   fill="rgb(178,178,178)"
   stroke="rgb(178,178,178)"
   x1="2206"
   y1="8910"
   x2="2890"
   y2="9594"
   id="line434" />
     <line
   fill="rgb(178,178,178)"
   stroke="rgb(178,178,178)"
   x1="2206"
   y1="9060"
   x2="2740"
   y2="9594"
   id="line436" />
     <line
   fill="rgb(178,178,178)"
   stroke="rgb(178,178,178)"
   x1="2206"
   y1="9210"
   x2="2590"
   y2="9594"
   id="line438" />
     <line
   fill="rgb(178,178,178)"
   stroke="rgb(178,178,178)"
   x1="2206"
   y1="9360"
   x2="2440"
   y2="9594"
   id="line440" />
     <line
   fill="rgb(178,178,178)"
   stroke="rgb(178,178,178)"
   x1="2206"
   y1="9510"
   x2="2290"
   y2="9594"
   id="line442" />
    </g>
   </pattern>
  </defs>
  <path
   style="fill:url(#pattern1)"
   d="M 4485,9594 L 2206,9594 2206,6060 6765,6060 6765,9594 4485,9594 Z"
   id="path449" />
 </g>
 <path
   fill="none"
   stroke="rgb(0,0,0)"
   stroke-linejoin="round"
   d="M 4485,9594 L 2206,9594 2206,6060 6765,6060 6765,9594 4485,9594 Z"
   id="path453" />
 <path
   fill="none"
   stroke="rgb(237,28,36)"
   stroke-width="80"
   stroke-linejoin="round"
   d="M 2482,6463 L 3282,6463"
   id="path455" />
 <path
   fill="rgb(237,28,36)"
   stroke="none"
   d="M 2734,6315 L 2734,6611 3030,6611 3030,6315 2734,6315 Z"
   id="path457" />
 <path
   fill="none"
   stroke="rgb(237,28,36)"
   stroke-linejoin="round"
   d="M 2734,6315 L 2734,6611 3030,6611 3030,6315 2734,6315 Z"
   id="path459" />
 <path
   fill="none"
   stroke="rgb(0,134,75)"
   stroke-width="80"
   stroke-linejoin="round"
   d="M 2482,7145 L 3282,7145"
   id="path461" />
 <path
   fill="rgb(0,134,75)"
   stroke="none"
   d="M 2734,7145 L 2882,7293 3030,7145 2882,6997 2734,7145 Z"
   id="path463" />
 <path
   fill="none"
   stroke="rgb(0,134,75)"
   stroke-linejoin="round"
   d="M 2734,7145 L 2882,7293 3030,7145 2882,6997 2734,7145 Z"
   id="path465" />
 <path
   fill="none"
   stroke="rgb(250,166,26)"
   stroke-width="80"
   stroke-linejoin="round"
   d="M 2482,7827 L 3282,7827"
   id="path467" />
 <path
   fill="rgb(250,166,26)"
   stroke="none"
   d="M 2734,7679 L 2882,7975 3030,7679 2734,7679 Z"
   id="path469" />
 <path
   fill="none"
   stroke="rgb(250,166,26)"
   stroke-linejoin="round"
   d="M 2734,7679 L 2882,7975 3030,7679 2734,7679 Z"
   id="path471" />
 <path
   fill="none"
   stroke="rgb(255,242,0)"
   stroke-width="80"
   stroke-linejoin="round"
   d="M 2482,8508 L 3282,8508"
   id="path473" />
 <path
   fill="rgb(255,242,0)"
   stroke="none"
   d="M 2734,8656 L 3030,8656 2882,8361 2734,8656 Z"
   id="path475" />
 <path
   fill="none"
   stroke="rgb(255,242,0)"
   stroke-linejoin="round"
   d="M 2734,8656 L 3030,8656 2882,8361 2734,8656 Z"
   id="path477" />
 <path
   fill="none"
   stroke="rgb(0,102,179)"
   stroke-width="80"
   stroke-linejoin="round"
   d="M 2482,9190 L 3282,9190"
   id="path479" />
 <path
   fill="rgb(0,102,179)"
   stroke="none"
   d="M 2734,9042 L 2734,9338 3030,9190 2734,9042 Z"
   id="path481" />
 <path
   fill="none"
   stroke="rgb(0,102,179)"
   stroke-linejoin="round"
   d="M 2734,9042 L 2734,9338 3030,9190 2734,9042 Z"
   id="path483" />
 <text
   class="TextShape"
   id="text491"><tspan
     class="TextParagraph"
     font-family="Liberation Sans, sans-serif"
     font-size="494px"
     font-weight="400"
     id="tspan489"><tspan
       class="TextPosition"
       x="3390"
       y="6635"
       id="tspan487"><tspan
         fill="rgb(0,0,0)"
         stroke="none"
         id="tspan485">Ogive</tspan></tspan></tspan></text>


 <text
   class="TextShape"
   id="text499"><tspan
     class="TextParagraph"
     font-family="Liberation Sans, sans-serif"
     font-size="494px"
     font-weight="400"
     id="tspan497"><tspan
       class="TextPosition"
       x="3390"
       y="7317"
       id="tspan495"><tspan
         fill="rgb(0,0,0)"
         stroke="none"
         id="tspan493">Ellipse</tspan></tspan></tspan></text>


 <text
   class="TextShape"
   id="text507"><tspan
     class="TextParagraph"
     font-family="Liberation Sans, sans-serif"
     font-size="494px"
     font-weight="400"
     id="tspan505"><tspan
       class="TextPosition"
       x="3390"
       y="7999"
       id="tspan503"><tspan
         fill="rgb(0,0,0)"
         stroke="none"
         id="tspan501">Haack</tspan></tspan></tspan></text>


 <text
   class="TextShape"
   id="text515"><tspan
     class="TextParagraph"
     font-family="Liberation Sans, sans-serif"
     font-size="494px"
     font-weight="400"
     id="tspan513"><tspan
       class="TextPosition"
       x="3390"
       y="8680"
       id="tspan511"><tspan
         fill="rgb(0,0,0)"
         stroke="none"
         id="tspan509">Konisch</tspan></tspan></tspan></text>


 <text
   class="TextShape"
   id="text523"><tspan
     class="TextParagraph"
     font-family="Liberation Sans, sans-serif"
     font-size="494px"
     font-weight="400"
     id="tspan521"><tspan
       class="TextPosition"
       x="3390"
       y="9362"
       id="tspan519"><tspan
         fill="rgb(0,0,0)"
         stroke="none"
         id="tspan517">Experimentell</tspan></tspan></tspan></text>


 <text
   class="TextShape"
   id="text531"><tspan
     class="TextParagraph"
     font-family="Liberation Sans, sans-serif"
     font-size="494px"
     font-weight="400"
     id="tspan529"><tspan
       class="TextPosition"
       x="5252"
       y="11047"
       id="tspan527"><tspan
         fill="rgb(0,0,0)"
         stroke="none"
         id="tspan525">Windgeschwindigkeit [m/s]</tspan></tspan></tspan></text>


 <text
   class="TextShape"
   transform="translate(605,6662) rotate(-90) translate(-605,-6662)"
   id="text539"><tspan
     class="TextParagraph"
     font-family="Liberation Sans, sans-serif"
     font-size="494px"
     font-weight="400"
     id="tspan537"><tspan
       class="TextPosition"
       x="605"
       y="6662"
       id="tspan535"><tspan
         fill="rgb(0,0,0)"
         stroke="none"
         id="tspan533">Cw-Wert</tspan></tspan></tspan></text>


</svg>